<svg width="23" height="40" viewBox="0 0 23 40" fill="none" xmlns="http://www.w3.org/2000/svg">
<path d="M0.807161 39.2482C1.04948 39.4865 1.33724 39.6756 1.65399 39.8046C1.97073 39.9336 2.31025 40 2.65313 40C2.99602 40 3.33554 39.9336 3.65228 39.8046C3.96902 39.6756 4.25678 39.4865 4.4991 39.2482L22.2348 21.8358C22.4774 21.5977 22.6698 21.315 22.8011 21.0038C22.9324 20.6926 23 20.359 23 20.0222C23 19.6853 22.9324 19.3517 22.8011 19.0405C22.6698 18.7293 22.4774 18.4466 22.2348 18.2085L4.4991 0.796152C4.259 0.548307 3.97084 0.350195 3.65158 0.213491C3.33233 0.0767878 2.98845 0.00425895 2.64022 0.000184885C2.29199 -0.003893 1.94645 0.0605678 1.62397 0.18976C1.30149 0.318956 1.0086 0.510271 0.762568 0.752428C0.516531 0.994585 0.322325 1.28268 0.191399 1.59974C0.060473 1.9168 -0.00452372 2.25641 0.000240871 2.59853C0.00500355 2.94066 0.0794302 3.27839 0.219134 3.59181C0.358838 3.90523 0.560996 4.18801 0.813683 4.42346L16.7034 20.0222L0.813686 35.6209C0.570667 35.8585 0.37771 36.1409 0.245845 36.4519C0.113983 36.7629 0.0457971 37.0963 0.0451906 37.4332C0.044586 37.7701 0.111574 38.1038 0.242317 38.4152C0.373062 38.7266 0.565 39.0097 0.807161 39.2482Z" fill="black"/>
</svg>
