<svg width="41" height="41" fill="none" xmlns="http://www.w3.org/2000/svg"><path fill="#fff" d="M5.415 6.189h30.943v30.17H5.415z"/><path d="M34.531 0H6.514A6.513 6.513 0 000 6.514v28.017C0 38.084 2.916 41 6.514 41h28.017C38.084 41 41 38.084 41 34.531V6.514C41 2.916 38.084 0 34.531 0zm-2.095 16.354L19.133 29.657a2.288 2.288 0 01-1.594.683c-.547 0-1.185-.228-1.595-.683l-7.38-7.38a2.255 2.255 0 010-3.235 2.255 2.255 0 013.235 0l5.785 5.786L29.292 13.12a2.255 2.255 0 013.235 0c.82.911.82 2.369-.091 3.234z" fill="#000"/></svg>