<svg width="173" height="186" fill="none" xmlns="http://www.w3.org/2000/svg"><path d="M25.335 54.377l-.207.608a28.006 28.006 0 01-11.288-3.81 26.866 26.866 0 01-8.518-8.089A25.707 25.707 0 011.21 32.269a25.363 25.363 0 011.08-11.468l22.845 7.084a40.535 40.535 0 00.2 26.492z" fill="#F1591B"/><path d="M170.824 93.18a69.335 69.335 0 01-2.449 12.97c-.336 1.143-.673 2.299-1.065 3.439a72.167 72.167 0 01-4.463 10.307c-8.205 15.419-21.894 27.6-38.596 34.344-16.702 6.745-35.316 7.607-52.48 2.433l-2.33-.707c9.988-1.834 19.303-6.197 26.96-12.627 7.659-6.43 13.376-14.689 16.549-23.906l-6.471-1.955c-2.233 6.499-5.912 12.477-10.784 17.522-4.871 5.045-10.82 9.039-17.438 11.705a52.06 52.06 0 01-20.896 3.741c-7.15-.202-14.15-1.877-20.52-4.909a48.782 48.782 0 01-7.705-4.581c-7.606-5.526-13.34-13.051-16.512-21.666a41.834 41.834 0 01-.641-1.876c-2.903-9.118-2.81-18.895.267-28.028l.01-.244a45.887 45.887 0 011.24-3.176c3.364-7.795 8.909-14.582 16.023-19.616a49.689 49.689 0 014.57-2.902l.992-.526c5.191 7.709 12.928 13.54 22.011 16.592 9.083 3.052 19.005 3.152 28.227.285l1.739 1.218a78.855 78.855 0 006.925 4.19 118.865 118.865 0 007.559 3.723 92.662 92.662 0 0010.303 3.79l20.514 6.099a45.596 45.596 0 0019.873 1.475 45.417 45.417 0 0018.588-7.113zm-78.273 20.13a38.117 38.117 0 002.718-6.007l1.064-3.086-34.858-10.524-3.51-1.053a22.844 22.844 0 00-8.482-.883 22.937 22.937 0 00-8.228 2.28 22.125 22.125 0 00-6.724 5.094 20.904 20.904 0 00-4.195 7.134 20.003 20.003 0 00-1.027 8.088 19.92 19.92 0 002.297 7.811 20.695 20.695 0 005.27 6.343 21.889 21.889 0 007.444 3.911c9.047 2.716 18.85 2.288 27.675-1.209 8.825-3.496 16.106-9.836 20.556-17.899z" fill="#FDD734"/><path d="M55.988 98.102a15.74 15.74 0 00-10.093.353 15.67 15.67 0 00-3.412 1.811c-2.263 1.57-4.031 3.701-5.11 6.156a13.763 13.763 0 00-1.002 7.752 13.847 13.847 0 003.404 7.055c1.801 2 4.156 3.478 6.801 4.271 7.897 2.359 16.467 1.841 24.059-1.454 7.592-3.295 13.667-9.134 17.056-16.391l-28.236-8.502-3.467-1.051z" fill="#FDD734"/><path d="M78.433 184.845c-35.137-.634-63.544-2.472-63.448-4.103.096-1.632 28.658-2.441 63.795-1.806 35.138.634 63.545 2.471 63.449 4.103-.096 1.632-28.658 2.441-63.796 1.806z" fill="#000014"/><path d="M68.526 1.978c7.34.242 14.429 2.567 20.371 6.681 5.942 4.115 10.47 9.834 13.012 16.434a34.24 34.24 0 011.268 20.646c-1.716 6.861-5.51 13.09-10.905 17.9-5.395 4.81-12.146 7.983-19.402 9.12-7.255 1.136-14.688.185-21.358-2.734-6.67-2.92-12.28-7.675-16.117-13.666-3.837-5.991-5.73-12.948-5.442-19.992.388-9.445 4.67-18.375 11.903-24.824 7.234-6.45 16.827-9.89 26.67-9.565zM50.93 45.763a13.98 13.98 0 007.581-1.926c2.277-1.346 4.09-3.307 5.21-5.636a12.498 12.498 0 001.082-7.448 12.668 12.668 0 00-3.41-6.75 13.54 13.54 0 00-6.753-3.774 14.044 14.044 0 00-7.82.47 13.54 13.54 0 00-6.25 4.56 12.667 12.667 0 00-2.575 7.11 12.44 12.44 0 00.818 4.985 12.78 12.78 0 002.745 4.296 13.39 13.39 0 004.255 2.953c1.608.706 3.347 1.1 5.117 1.16z" fill="#FDD734"/><path d="M45.68 29.942c.146.499.396.963.737 1.364.341.401.765.73 1.245.967a4.107 4.107 0 003.136.192 3.98 3.98 0 001.372-.807 3.8 3.8 0 00.926-1.263 3.64 3.64 0 000-3.016 6.68 6.68 0 013.425 2.23 6.245 6.245 0 011.393 3.744 6.275 6.275 0 01-1.174 3.825 6.73 6.73 0 01-3.29 2.442 6.984 6.984 0 01-4.148.127 6.678 6.678 0 01-3.42-2.237 6.245 6.245 0 01-1.384-3.746 6.277 6.277 0 011.182-3.822z" fill="#000014"/></svg>