<svg width="323" height="297" fill="none" xmlns="http://www.w3.org/2000/svg"><g clip-path="url(#clip0)"><path d="M267.534 79.165h-12.296V60.111c.085 0 .171.014.263.014 3.587 0 6.497-2.92 6.497-6.52 0-3.6-2.91-6.52-6.497-6.52-.085 0-.17.007-.263.014V40.6h-.178v-2.842c0-4.614-3.721-8.349-8.318-8.349h-28.868v25.446c0 9.427 6.966 17.218 16.017 18.483v5.827h-7.45a21.09 21.09 0 00-15.683 6.999l-44.828 49.899 5.756-.479a24.473 24.473 0 0116.658-6.549h93.99l5.721-23.696c3.217-13.333-6.845-26.174-20.521-26.174zm-217.24 24.66l-.022-.286a24.759 24.759 0 00-.071-.721c-.014-.093-.021-.178-.036-.271a16.55 16.55 0 00-.384-1.878l-.064-.236a27.326 27.326 0 00-.22-.722 15.413 15.413 0 00-.818-1.971c-.03-.05-.05-.1-.079-.157-.128-.25-.263-.492-.398-.735a15.769 15.769 0 00-1.16-1.728c-.022-.022-.036-.05-.057-.072a11.705 11.705 0 00-.627-.75 14.511 14.511 0 00-1.038-1.057 12.424 12.424 0 003.87-9.027c0-6.884-5.557-12.462-12.416-12.462-6.86 0-12.417 5.578-12.417 12.462 0 3.985 1.871 7.527 4.775 9.806a26.422 26.422 0 01-9.18 1.65h-6.617c-4.796 0-8.952-2.743-10.994-6.75a24.325 24.325 0 00-1.302 7.864c0 13.397 10.823 24.26 24.172 24.26h11.385l.327-.243c7.614-1.321 13.406-7.977 13.406-15.99 0-.329-.014-.657-.035-.986z" fill="#FED141"/><path d="M2.34 88.92s0 .008 0 0c.043-.106.071-.22.114-.335l-.114.336z" fill="#FED141"/><path d="M49.2 84.222c0 3-1.068 5.734-2.833 7.884a8.22 8.22 0 002.854.514c4.618 0 8.368-3.756 8.368-8.398h-8.39z" fill="#FF6A39"/><path d="M41.802 87.329a3.101 3.101 0 003.096-3.107 3.101 3.101 0 00-3.096-3.107 3.101 3.101 0 00-3.095 3.107 3.101 3.101 0 003.095 3.107z" fill="#000"/><path d="M42.8 84.115c.668 0 1.21-.544 1.21-1.214 0-.67-.542-1.215-1.21-1.215-.669 0-1.21.544-1.21 1.215 0 .67.541 1.214 1.21 1.214zm145.549 44.92a24.508 24.508 0 00-16.658 6.549l-42.75 3.528a24.51 24.51 0 00-16.957 8.92 24.695 24.695 0 00-5.415 18.433l10.809 94.898 48.777-5.592-7.926-69.631 16.344-1.35 32.874 80.208 45.405-18.747-26.925-65.703 28.135-2.321c10.567-.864 19.49-8.499 21.909-19.011l6.383-30.181h-94.005z" fill="#fff"/><path d="M182.301 122.587H13.661v5.735H182.3v-5.735z" fill="#000"/><path d="M83.396 128.321h-2.134V281.51h2.134V128.321zm-8.832 89.271H72.43V297h2.134v-79.408zm165.732-63.918h-49.219c-13.691 0-24.784-11.141-24.784-24.874h74.003v24.874z" fill="#000"/><path d="M245.453 161.722a6.009 6.009 0 01-3.8-1.349 6.085 6.085 0 01-.903-8.535l23.431-29.088a6.034 6.034 0 018.504-.907 6.085 6.085 0 01.903 8.535l-23.431 29.088a6.02 6.02 0 01-4.704 2.256z" fill="#000"/><path d="M232.462 161.409c-3.074 0-6.177-.929-8.866-2.85l-50.863-36.344-23.218 3.757c-8.34 1.35-16.195-4.342-17.54-12.712-1.345-8.37 4.326-16.255 12.666-17.605l29.408-4.763a15.239 15.239 0 0111.307 2.65l44.252 31.616 27.004-33.523c5.316-6.592 14.943-7.62 21.518-2.286 6.568 5.335 7.592 14.998 2.277 21.597l-36.055 44.757c-2.996 3.749-7.422 5.706-11.89 5.706z" fill="#FED141"/><path d="M43.426 269.94c3.765 0 6.817-3.063 6.817-6.842 0-3.778-3.052-6.841-6.817-6.841s-6.817 3.063-6.817 6.841c0 3.779 3.052 6.842 6.817 6.842zm17.412-33.465a3.415 3.415 0 003.408-3.421 3.414 3.414 0 00-3.408-3.421 3.414 3.414 0 00-3.408 3.421 3.415 3.415 0 003.408 3.421zM239.229 45.242a2.495 2.495 0 002.49-2.5 2.495 2.495 0 00-2.49-2.499 2.495 2.495 0 00-2.491 2.5c0 1.38 1.115 2.5 2.491 2.5zm-18.379 0a2.495 2.495 0 002.49-2.5 2.495 2.495 0 00-2.49-2.499 2.495 2.495 0 00-2.491 2.5c0 1.38 1.115 2.5 2.491 2.5z" fill="#000"/><path d="M230.22 54.362v-9.577h-.092c.021-.235.035-.471.035-.714 0-4.906-3.977-8.891-8.859-8.891-4.881 0-8.859 3.992-8.859 8.891 0 4.9 3.978 8.891 8.859 8.891a8.822 8.822 0 006.347-2.7v6.678h6.248v-2.578h-3.679zm-8.916-3.978c-3.465 0-6.29-2.835-6.29-6.313 0-3.478 2.818-6.313 6.29-6.313 3.473 0 6.291 2.828 6.291 6.313s-2.818 6.313-6.291 6.313z" fill="#000"/><path d="M240.367 52.962c-4.889 0-8.859-3.992-8.859-8.891 0-4.9 3.977-8.891 8.859-8.891 4.881 0 8.859 3.992 8.859 8.891 0 4.9-3.971 8.891-8.859 8.891zm0-15.204c-3.466 0-6.29 2.828-6.29 6.313s2.817 6.313 6.29 6.313c3.472 0 6.29-2.835 6.29-6.313 0-3.478-2.818-6.313-6.29-6.313zm-4.613 30.516v-2.728c1.373 0 2.69-.521 3.693-1.464l1.857 1.993a8.059 8.059 0 01-5.55 2.2z" fill="#000"/><path d="M35.656 102.726H24.363c0 6.263 5.06 11.341 11.3 11.341 3.117 0 5.65-2.536 5.65-5.671-.007-3.128-2.533-5.67-5.657-5.67z" fill="#FED141"/><path d="M35.655 115.109c-6.803 0-12.339-5.556-12.339-12.384v-1.042h12.339c3.686 0 6.689 3.013 6.689 6.713 0 3.699-2.996 6.713-6.69 6.713zM25.45 103.775c.52 5.192 4.903 9.249 10.204 9.249 2.54 0 4.61-2.079 4.61-4.628 0-2.55-2.07-4.628-4.61-4.628H25.45v.007zm263.444 176.664l-12.359-86.065h6.809a8.15 8.15 0 007.92-6.27l18.522-77.587c1.53-6.399-3.302-12.548-9.862-12.548h-2.484c-1.971-15.876-15.49-28.21-31.835-28.21v2.143c15.163 0 27.73 11.377 29.679 26.067h-6.76a21.316 21.316 0 01-.469 7.37l-5.721 23.696-6.383 30.181c-2.419 10.52-11.342 18.147-21.909 19.011l-27.018 2.228-1.046-2.556-1.971.814 27.274 66.539a113.28 113.28 0 01-31.978 7.741v-99.319h-2.134v99.512c-2.839.207-5.7.314-8.575.314h-.213c-1.48 0-2.939.122-4.362.364l-37.385-91.22a23.666 23.666 0 01-.662-16.111l-2.035-.65a25.866 25.866 0 00.718 17.575l37.244 90.864c-9.322 2.421-16.715 9.991-18.537 19.868l-.953 5.156c2.27.421 4.554.785 6.845 1.1H139.11a141.078 141.078 0 0038.04-10.199l-10.467-24.838-10.011-69.739-2.114.308 9.905 68.959c-13.626 5.528-28.05 8.335-42.914 8.335h-.214c-12.238-.022-22.79 8.613-25.018 20.689l-.954 5.156c2.89.536 5.8.979 8.724 1.336H56.355v2.142H323v-2.142h-34.106v-.014zm-60.945 0a141.175 141.175 0 0036.254-9.963l-10.346-24.553-21.126-51.549h41.455l12.36 86.065h-58.597z" fill="#000"/><path d="M273.048 187.362h-11.677v-2.143h11.677a6.269 6.269 0 006.105-4.828c3.465-14.497 14.858-62.153 15.84-66.745l2.084.449c-.989 4.614-12.381 52.292-15.853 66.796-.911 3.807-4.27 6.471-8.176 6.471z" fill="#fff"/><path d="M50.18 83.15c-.548-6.948-6.34-12.433-13.406-12.433-7.422 0-13.456 6.056-13.456 13.505a13.47 13.47 0 003.8 9.384 25.526 25.526 0 01-7.166 1.028h-6.617c-4.27 0-8.126-2.37-10.069-6.184l-1.793-.208c-.078.207-.15.422-.22.636l-.043.129A25.41 25.41 0 000 96.784c0 13.955 11.307 25.303 25.21 25.303h11.72l-.071-.215c8.211-1.306 14.502-8.462 14.502-17.061 0-4.399-1.694-8.406-4.455-11.42.74.186 1.509.3 2.306.3 5.201 0 9.435-4.249 9.435-9.47v-1.07H50.18zm-24.777 1.072c0-6.3 5.102-11.42 11.378-11.42s11.378 5.12 11.378 11.42c0 6.299-5.102 11.42-11.378 11.42s-11.378-5.129-11.378-11.42zM34.155 120c-8.347 0-15.135-6.813-15.135-15.19h-2.085c0 6.549 3.65 12.262 9.016 15.19h-.747c-12.752 0-23.126-10.412-23.126-23.217 0-1.814.206-3.6.612-5.342a13.32 13.32 0 0010.638 5.278h6.617c3.117 0 6.162-.522 9.023-1.514a13.35 13.35 0 007.799 2.52c3.216 0 6.169-1.142 8.488-3.035 2.484 2.65 4.02 6.206 4.02 10.12.015 8.377-6.78 15.19-15.12 15.19zm15.064-28.452a7.13 7.13 0 01-1.11-.086 13.318 13.318 0 002.07-6.17h6.255c-.512 3.535-3.55 6.256-7.215 6.256zm197.112 7.014v2.143c.533 0 1.06.021 1.586.05l-18.493 22.953-20.55-14.683v-6.778h-2.135v5.249l-8.346-5.963 13.171-14.662a20.053 20.053 0 0114.885-6.649h1.602c.818 7.935 7.514 14.134 15.633 14.134 8.666 0 15.718-7.078 15.718-15.776h-2.135c0 7.52-6.091 13.633-13.583 13.633-6.938 0-12.666-5.249-13.477-11.99h3.693v.07c9.214 0 16.857-6.727 18.329-15.554-3.287 5.264-9.115 8.77-15.768 8.77a19.02 19.02 0 01-2.569-.178v4.756h-7.457a22.164 22.164 0 00-16.472 7.356l-13.335 14.847-10.652-7.606a16.215 16.215 0 00-12.097-2.835l-18.806 3.043L150.76 82.8c-2.454-5.742-8.076-9.47-14.302-9.47H76.715c-4.76 0-7.962 4.885-6.09 9.27l19.525 45.72h80.05l-14.259-33.4 18.28-2.957c3.714-.6 7.45.272 10.517 2.464l45.07 32.202 20.621-25.603c12.638 1.993 22.336 12.991 22.336 26.217h2.135c.007-15.812-12.815-28.68-28.569-28.68zM217.873 29.41h28.868c4.597 0 8.318 3.734 8.318 8.348V40.6h.178v6.5c.086 0 .171-.015.264-.015 1.352 0 2.611.414 3.65 1.128V22.096c0-6.02-4.86-10.898-10.866-10.898h-19.262c-6.162 0-11.157-5.013-11.157-11.198-8.091 0-14.651 6.585-14.651 14.705 0 8.12 6.568 14.704 14.658 14.704z" fill="#000"/><path d="M125.277 112.255c3.538-3.984 2.353-10.838-2.646-15.31-4.999-4.471-11.919-4.866-15.456-.883-3.538 3.984-2.353 10.838 2.646 15.31 4.999 4.471 11.919 4.867 15.456.883z" fill="#fff"/></g><defs><clipPath id="clip0"><path fill="#fff" d="M0 0h323v297H0z"/></clipPath></defs></svg>