<svg width="25" height="22" fill="none" xmlns="http://www.w3.org/2000/svg"><path d="M23.458 2.428a8.72 8.72 0 01-1.16.453A5.604 5.604 0 0023.341.914a.432.432 0 00-.128-.45.366.366 0 00-.438-.033 8.792 8.792 0 01-2.7 1.143C19.115.57 17.814 0 16.468 0c-2.841 0-5.153 2.475-5.153 5.517 0 .24.014.478.042.713-3.525-.332-6.803-2.187-9.054-5.143a.375.375 0 00-.33-.152.386.386 0 00-.304.205 5.817 5.817 0 00-.698 2.774c0 1.33.443 2.59 1.226 3.576a4.226 4.226 0 01-.69-.33.365.365 0 00-.38.003.42.42 0 00-.194.35l-.001.074c0 1.985.997 3.771 2.522 4.745a4.168 4.168 0 01-.392-.061.372.372 0 00-.362.132.437.437 0 00-.079.402c.564 1.886 2.018 3.274 3.774 3.698a8.675 8.675 0 01-5.963 1.42.386.386 0 00-.41.272.43.43 0 00.155.489c2.247 1.543 4.846 2.358 7.514 2.358 5.246 0 8.528-2.649 10.357-4.871 2.28-2.77 3.589-6.438 3.589-10.062 0-.151-.002-.304-.007-.457.9-.726 1.675-1.604 2.306-2.614a.438.438 0 00-.026-.497.37.37 0 00-.453-.113z" fill="#fff"/></svg>