<svg width="77" height="46" fill="none" xmlns="http://www.w3.org/2000/svg"><path fill-rule="evenodd" clip-rule="evenodd" d="M63.039 0L14.175.06c-2.115.002-3.858 1.77-3.858 3.92v30.713a1.323 1.323 0 00.379.926 1.285 1.285 0 00.912.381l54.003-.06c.34 0 .668-.137.909-.382s.377-.578.377-.925V3.921c0-2.15-1.743-3.924-3.858-3.921zM56.33 45.758h14.812c3.118 0 5.645-2.591 5.645-5.787-6.816-.003-13.64-.002-20.458-.002H.563c0 3.197 2.527 5.788 5.646 5.788h50.12z" fill="#000"/><path fill="#94EADA" d="M17.148 7h43.898v22H17.148z"/></svg>