<svg width="32" height="33" fill="none" xmlns="http://www.w3.org/2000/svg"><path d="M31.398 31.995a2.042 2.042 0 00.446-2.226 2.043 2.043 0 00-.446-.663l-13.93-13.88a2.054 2.054 0 00-2.901 0L.637 29.106a2.041 2.041 0 00-.485 2.25 2.042 2.042 0 001.128 1.121 2.06 2.06 0 002.259-.487l12.479-12.435L28.497 31.99a2.052 2.052 0 002.235.447 2.02 2.02 0 00.666-.442z" fill="#000"/><path d="M.601 1.259a2.041 2.041 0 00-.445 2.226c.104.248.255.473.445.663l13.93 13.88a2.054 2.054 0 002.902 0l13.93-13.88a2.042 2.042 0 00.485-2.25A2.042 2.042 0 0030.72.777a2.058 2.058 0 00-2.259.487L15.982 13.699 3.503 1.264A2.051 2.051 0 001.268.817c-.25.102-.476.252-.667.442z" fill="#000"/></svg>