<svg width="99" height="96" fill="none" xmlns="http://www.w3.org/2000/svg"><path d="M17.325 54.645c-.409 0-.817.41-.817.818v4.698c0 .409.408.817.817.817h34.932c1.226-2.349 2.86-4.494 4.699-6.333H17.325zm.102-16.24a.806.806 0 00-.818.817v4.699c0 .51.409.817.817.817h48.211c.51 0 .817-.408.817-.817v-4.699a.806.806 0 00-.817-.817h-48.21z" fill="#000"/><path d="M49.193 70.886H10.482a3.182 3.182 0 01-3.167-3.166V28.906h68.333v17.568h.919c1.839 0 3.677.205 5.414.511v-30.03c0-2.349-.92-4.596-2.35-6.23v-.102h-.102c-1.736-1.941-4.188-3.167-7.048-3.167h-6.945v-4.29A3.182 3.182 0 0062.369 0h-4.8a3.182 3.182 0 00-3.167 3.166v4.188H28.561V3.166A3.182 3.182 0 0025.394 0h-4.8a3.182 3.182 0 00-3.167 3.166v4.188h-6.945c-2.86 0-5.312 1.226-7.048 3.167h-.102v.102c-1.43 1.634-2.35 3.881-2.35 6.23V67.72c0 5.311 4.29 9.499 9.5 9.499h38.711c-.102-1.124-.204-2.145-.204-3.269.102-1.021.102-2.043.204-3.064z" fill="#000"/><path d="M76.567 52.5c-11.848 0-21.45 9.602-21.45 21.45 0 11.849 9.602 21.45 21.45 21.45 11.848 0 21.45-9.601 21.45-21.45 0-11.848-9.602-21.45-21.45-21.45zm0 36.567c-8.274 0-15.117-6.741-15.117-15.117a15.083 15.083 0 0115.117-15.117A15.083 15.083 0 0191.684 73.95a15.083 15.083 0 01-15.117 15.117z" fill="#000"/><path d="M82.39 70.784h-2.655v-5.516a3.182 3.182 0 00-3.166-3.166 3.182 3.182 0 00-3.167 3.166v8.682a3.182 3.182 0 003.167 3.167h5.822a3.182 3.182 0 003.166-3.167 3.182 3.182 0 00-3.166-3.166z" fill="#000"/></svg>