<svg width="79" height="46" fill="none" xmlns="http://www.w3.org/2000/svg"><path fill-rule="evenodd" clip-rule="evenodd" d="M64.437 0L14.18.06c-2.176.002-3.968 1.77-3.968 3.92v30.713a1.293 1.293 0 00.39.926 1.325 1.325 0 00.938.381l55.54-.06c.351 0 .688-.137.936-.382a1.3 1.3 0 00.387-.925V3.921c0-2.15-1.792-3.924-3.967-3.921zm-6.902 45.757H72.77c3.206 0 5.806-2.591 5.806-5.787-7.01-.003-14.028-.002-21.04-.002H.18c0 3.197 2.6 5.788 5.807 5.788h51.548z" fill="#000"/><path fill="#fff" d="M17.236 7h45.148v22H17.236z"/></svg>