<svg width="59" height="115" fill="none" xmlns="http://www.w3.org/2000/svg"><path d="M54.27 47.018h-2.3v-3.999c0-6.786-5.573-12.36-12.357-12.36H32.95v-9.695h2.302c2.665 0 4.724-2.181 4.724-4.726V4.726C39.976 2.06 37.796 0 35.252 0H23.743c-2.665 0-4.724 2.181-4.724 4.726v11.512c0 2.666 2.18 4.726 4.724 4.726h2.302v9.695h-6.663c-6.783 0-12.356 5.574-12.356 12.36v3.999H4.724C2.06 47.018 0 49.199 0 51.744v11.512c0 2.666 2.18 4.726 4.724 4.726h11.509c2.665 0 4.724-2.181 4.724-4.726V51.744c0-2.666-2.18-4.726-4.724-4.726H13.93v-3.999c0-2.908 2.423-5.332 5.33-5.332h20.352c2.907 0 5.33 2.424 5.33 5.332v3.999H42.64c-2.665 0-4.724 2.181-4.724 4.726v11.512c0 2.666 2.18 4.726 4.724 4.726h2.302v4.12c0 2.908-2.423 5.332-5.33 5.332H36.22a10.29 10.29 0 00-10.297 10.3v6.302h-2.302c-2.665 0-4.724 2.181-4.724 4.726v11.512c0 2.666 2.18 4.726 4.724 4.726H35.13c2.665 0 4.724-2.181 4.724-4.726V98.762c0-2.666-2.18-4.726-4.724-4.726h-2.302v-6.302c0-1.817 1.454-3.393 3.392-3.393h3.392c6.784 0 12.356-5.574 12.356-12.36v-3.999h2.302c2.665 0 4.724-2.181 4.724-4.726V51.744c.121-2.545-2.06-4.726-4.724-4.726z" fill="#000"/></svg>