<svg width="77" height="101" fill="none" xmlns="http://www.w3.org/2000/svg"><path d="M49.052 43.908c.632-1.157.105-2.631-1.053-3.157-1.157-.632-2.631-.106-3.157 1.052-1.158 2.421-3.684 3.895-6.316 3.895-2.737 0-5.158-1.474-6.316-3.895-.631-1.158-2-1.684-3.158-1.052-1.158.631-1.684 2-1.052 3.157 2 4 6.105 6.632 10.631 6.632 4.316 0 8.421-2.632 10.421-6.632zm-18.631-11.79c1.053 0 2 .737 2.21 1.684.316.948 1.158 1.58 2.106 1.58.21 0 .42 0 .631-.106 1.158-.316 1.79-1.579 1.474-2.737-.842-2.842-3.474-4.842-6.421-4.842s-5.684 2-6.421 4.842c-.316 1.158.316 2.316 1.474 2.737 1.157.316 2.315-.316 2.736-1.474.211-1.052 1.158-1.684 2.211-1.684zm11.052 3.158c1.157.316 2.315-.316 2.736-1.474.316-.947 1.158-1.684 2.211-1.684s2 .737 2.21 1.684c.316.948 1.158 1.58 2.106 1.58.21 0 .42 0 .631-.106 1.158-.316 1.79-1.579 1.474-2.737-.842-2.842-3.474-4.842-6.421-4.842s-5.684 2-6.421 4.842c-.316 1.264.316 2.421 1.474 2.737z" fill="#000"/><path d="M73.368 75.803c-4-6.421-11.053-10.21-18.631-10.21h-2.948v-6.211c6.947-3.79 11.684-11.053 11.684-19.579v-7.895c.632-.736 1.053-1.684 1.053-2.736-.21-4.737-1.053-9.58-1.58-12.737 1.264-3.369 1.58-9.369-6.63-15.895-.948-.737-2.422-.737-3.264.105C47.158 6.12 36 4.751 26.632 4.33c-12.527-.632-13.58 6-12.527 11.052-.631 3.053-1.579 8.421-1.895 13.895 0 1.052.316 2 1.053 2.737v7.894c0 8.421 4.737 15.79 11.684 19.58v6.21H22c-7.579 0-14.526 3.894-18.632 10.21-2.21 3.579-3.368 7.79-3.368 12v8.526c0 2 1.579 3.579 3.579 3.579h69.789c2 0 3.579-1.579 3.579-3.579v-8.526c-.105-4.21-1.263-8.421-3.58-12.105zM18.105 39.908v-7.473a3.499 3.499 0 001.58-2.948c0-3.894.525-6.947 1.262-9.368 3.263 1.474 9.684 2.526 17.158 2.526 7.895 0 14.632-1.158 17.79-2.842.736 2.526 1.262 5.684 1.262 9.684a3.5 3.5 0 001.58 2.948v7.473c0 9.58-7.79 17.369-17.369 17.369h-5.895c-9.578 0-17.368-7.79-17.368-17.369zm17.368 22.105h5.895c2 0 3.895-.315 5.684-.736v8.105c-5.052 4-12.21 4-17.263 0v-8.105c1.79.526 3.684.736 5.684.736z" fill="#000"/></svg>