<svg width="57" height="79" fill="none" xmlns="http://www.w3.org/2000/svg"><path d="M18.166 18.167H3.633L18.166 3.634v14.533zm4.908 39.767A81.71 81.71 0 0133.7 54.628c-2.21-2.566-4.412-5.77-6.254-9.069a117.429 117.429 0 01-4.372 12.375zm3.541-26.26c-.037.007-.088.016-.159.042-.159.053-.286.141-.399.398-.42.985-.088 2.856.559 4.863.532-3.462.248-4.934-.001-5.303z" fill="#000"/><path d="M21.8 0v21.8H0V79h56.673V0H21.799zm24.62 58.75c-.915 1.276-2.167 1.949-3.634 1.949-1.991 0-4.303-1.257-6.89-3.738-4.641.97-10.062 2.701-14.441 4.619-1.37 2.9-2.68 5.239-3.898 6.95-1.677 2.353-3.12 3.448-4.553 3.448a2.624 2.624 0 01-1.582-.533c-1.704-1.276-1.934-2.7-1.827-3.668.298-2.665 3.594-5.45 9.795-8.29 2.459-5.392 4.801-12.037 6.196-17.588-1.633-3.552-3.22-8.164-2.064-10.868.406-.946 1.12-1.614 2.058-1.929a3.467 3.467 0 011.087-.188c.827 0 1.563.362 2.076 1.014.482.617 1.938 2.47-.252 11.678 2.208 4.555 5.33 9.193 8.323 12.371 2.147-.391 3.99-.586 5.494-.586 2.565 0 4.115.6 4.75 1.826.525 1.018.31 2.207-.638 3.533z" fill="#000"/><path d="M12.335 68.082c-.015.149-.061.545.704 1.132.245-.076 1.668-.725 4.32-5.62-3.498 1.964-4.92 3.578-5.024 4.488zm27.067-11.72c1.335 1.021 2.514 1.585 3.384 1.585.386 0 .888-.091 1.394-.798.245-.34.338-.56.372-.677-.196-.105-.785-.325-2.242-.325-.827 0-1.807.07-2.908.215z" fill="#000"/></svg>