<svg width="26" height="26" fill="none" xmlns="http://www.w3.org/2000/svg"><path d="M13 0C5.83 0 0 5.83 0 13s5.83 13 13 13 13-5.83 13-13S20.17 0 13 0zm7.143 17.817c-.246.602-.684 1.204-.958 1.478-1.56 1.56-5.747.164-9.196-3.285-3.448-3.448-4.844-7.608-3.284-9.195.274-.274.903-.712 1.478-.958a1.066 1.066 0 011.26.328l1.723 2.19a1.072 1.072 0 01-.136 1.478c-.438.383-.74.656-.822.739-.656.656.301 2.052 1.752 3.503 1.45 1.45 2.819 2.435 3.503 1.751.082-.082.356-.383.74-.82a1.07 1.07 0 011.477-.138l2.19 1.725c.355.219.465.739.273 1.204z" fill="#000"/></svg>