<svg width="77" height="101" viewBox="0 0 77 101" fill="none" xmlns="http://www.w3.org/2000/svg">
<path d="M49.0531 43.9085C49.6847 42.7506 49.1584 41.277 48.0005 40.7507C46.8426 40.1191 45.369 40.6454 44.8426 41.8033C43.6848 44.2243 41.1585 45.698 38.5269 45.698C35.7901 45.698 33.369 44.2243 32.2112 41.8033C31.5796 40.6454 30.2112 40.1191 29.0533 40.7507C27.8954 41.3822 27.3691 42.7506 28.0007 43.9085C30.0006 47.9085 34.1059 50.5401 38.6322 50.5401C42.9479 50.5401 47.0532 47.9085 49.0531 43.9085Z" fill="black"/>
<path d="M30.42 32.1188C31.4726 32.1188 32.42 32.8556 32.6305 33.803C32.9463 34.7503 33.7884 35.3819 34.7358 35.3819C34.9463 35.3819 35.1568 35.3819 35.3673 35.2766C36.5252 34.9609 37.1568 33.6977 36.841 32.5398C35.9989 29.6977 33.3673 27.6978 30.42 27.6978C27.4726 27.6978 24.7358 29.6977 23.999 32.5398C23.6832 33.6977 24.3148 34.8556 25.4727 35.2766C26.6305 35.5924 27.7884 34.9609 28.2095 33.803C28.42 32.7503 29.3674 32.1188 30.42 32.1188Z" fill="black"/>
<path d="M41.4727 35.2766C42.6305 35.5924 43.7884 34.9609 44.2095 33.803C44.5253 32.8556 45.3674 32.1188 46.42 32.1188C47.4726 32.1188 48.42 32.8556 48.6305 33.803C48.9463 34.7503 49.7884 35.3819 50.7358 35.3819C50.9463 35.3819 51.1568 35.3819 51.3673 35.2766C52.5252 34.9609 53.1568 33.6977 52.841 32.5398C51.9989 29.6977 49.3673 27.6978 46.42 27.6978C43.4726 27.6978 40.7358 29.6977 39.999 32.5398C39.6832 33.803 40.3148 34.9609 41.4727 35.2766Z" fill="black"/>
<path d="M73.3679 75.8028C69.3679 69.3818 62.3154 65.5923 54.7365 65.5923H51.7891V59.3818C58.7364 55.5924 63.4732 48.3293 63.4732 39.803V31.9083C64.1048 31.1715 64.5259 30.2241 64.5259 29.1715C64.3153 24.4347 63.4732 19.5926 62.9469 16.4348C64.2101 13.0664 64.5259 7.0664 56.3154 0.540128C55.368 -0.196709 53.8944 -0.196709 53.0523 0.645391C47.1576 6.11904 35.9997 4.75063 26.6314 4.32958C14.1052 3.698 13.0525 10.3295 14.1052 15.3821C13.4736 18.4347 12.5262 23.8031 12.2104 29.2768C12.2104 30.3294 12.5262 31.2768 13.2631 32.0136V39.9083C13.2631 48.3293 17.9999 55.6976 24.9472 59.4871V65.6976H21.9998C14.421 65.6976 7.47363 69.5923 3.3684 75.908C1.15789 79.4869 0 83.6974 0 87.9079V96.4342C0 98.4342 1.57894 100.013 3.57892 100.013H73.3679C75.3679 100.013 76.9468 98.4342 76.9468 96.4342V87.9079C76.8416 83.6974 75.6837 79.487 73.3679 75.8028ZM18.1051 39.9083V32.4346C19.0525 31.8031 19.6841 30.7504 19.6841 29.4873C19.6841 25.5926 20.2104 22.54 20.9472 20.1189C24.2104 21.5926 30.6314 22.6452 38.105 22.6452C45.9997 22.6452 52.7365 21.4874 55.8943 19.8032C56.6312 22.3295 57.1575 25.4873 57.1575 29.4873C57.1575 30.7504 57.7891 31.8031 58.7364 32.4346V39.9083C58.7364 49.4872 50.947 57.2766 41.3681 57.2766H35.4734C25.8946 57.2766 18.1051 49.4872 18.1051 39.9083ZM35.4734 62.0134H41.3681C43.3681 62.0134 45.2628 61.6976 47.0523 61.2766V69.3818C41.9997 73.3817 34.8419 73.3817 29.7893 69.3818V61.2766C31.5787 61.8029 33.4735 62.0134 35.4734 62.0134Z" fill="black"/>
</svg>
