<svg width="25" height="27" fill="none" xmlns="http://www.w3.org/2000/svg"><path d="M5.82 8.582H.802c-.223 0-.404.193-.404.432v17.265c0 .238.18.431.404.431H5.82c.223 0 .404-.193.404-.431V9.014c0-.239-.18-.432-.404-.432zM3.312 0C1.486 0 0 1.589 0 3.542c0 1.954 1.486 3.543 3.312 3.543 1.824 0 3.309-1.59 3.309-3.543S5.136 0 3.31 0zm15.273 8.154c-2.016 0-3.506.928-4.41 1.982V9.015c0-.239-.18-.432-.403-.432H8.966c-.223 0-.403.193-.403.432v17.264c0 .239.18.432.403.432h5.008c.222 0 .403-.193.403-.432v-8.542c0-2.878.73-4 2.604-4 2.04 0 2.203 1.798 2.203 4.148v8.394c0 .239.18.432.403.432h5.01c.223 0 .403-.193.403-.432v-9.47c0-4.28-.762-8.655-6.415-8.655z" fill="#fff"/></svg>