<svg width="13" height="27" fill="none" xmlns="http://www.w3.org/2000/svg"><path d="M.702 14.342H3.46v12.151c0 .24.182.435.406.435H8.54c.224 0 .405-.195.405-.435V14.4h3.169c.206 0 .38-.166.403-.385l.481-4.473a.454.454 0 00-.1-.34.394.394 0 00-.303-.144h-3.65V6.252c0-.845.425-1.274 1.264-1.274h2.386c.225 0 .406-.194.406-.434V.438c0-.24-.181-.435-.406-.435h-3.29A3.011 3.011 0 009.155 0C8.584 0 6.6.12 5.033 1.664 3.297 3.374 3.54 5.422 3.596 5.777v3.28H.702c-.224 0-.405.194-.405.434v4.416c0 .24.181.435.405.435z" fill="#fff"/></svg>