<svg width="119" height="55" fill="none" xmlns="http://www.w3.org/2000/svg"><path fill-rule="evenodd" clip-rule="evenodd" d="M58.41 27.496C58.427 12.416 46.504.14 31.7 0H18.82a12.457 12.457 0 00-8.886 3.763 12.93 12.93 0 00-3.67 9.06v29.354a12.93 12.93 0 003.67 9.06A12.457 12.457 0 0018.82 55h12.873c14.804-.141 26.727-12.416 26.708-27.496" fill="url(#paint0_linear)"/><path fill-rule="evenodd" clip-rule="evenodd" d="M27.95 42.037a1.492 1.492 0 01-1.45-1.31l-2.508-18.33-1.376 6.402c-.543 2.491-2.706 4.267-5.211 4.28H.94a.95.95 0 01-.94-.958.95.95 0 01.94-.958h16.473c1.625-.01 3.026-1.163 3.38-2.778l1.742-8.096c.17-.75.839-1.27 1.593-1.24.755.03 1.382.604 1.493 1.365l2.378 17.542 4.144-24.393a1.498 1.498 0 011.49-1.278 1.5 1.5 0 011.474 1.31l2.199 14.815c.24 1.581 1.571 2.752 3.143 2.762h27.245c.52 0 .94.428.94.958a.95.95 0 01-.94.958H40.457c-2.495-.02-4.608-1.877-4.992-4.388l-1.864-12.558-4.194 24.634a1.49 1.49 0 01-1.465 1.261" fill="#2A3D44"/><path d="M87.403 34.865L84.44 22.963V35.86c0 .714-.16 1.249-.48 1.606-.31.357-.726.535-1.247.535-.504 0-.916-.174-1.235-.523-.32-.356-.479-.896-.479-1.618V21.077c0-.815.21-1.363.63-1.644.42-.289.988-.433 1.702-.433h1.16c.697 0 1.2.064 1.512.191.319.128.554.357.706.688.15.332.323.871.516 1.619L89.91 31.73l2.684-10.232c.194-.748.366-1.287.517-1.619.151-.331.383-.56.694-.688.319-.127.827-.191 1.525-.191h1.16c.713 0 1.28.144 1.7.433.42.28.63.829.63 1.644V35.86c0 .714-.159 1.249-.478 1.606-.311.357-.731.535-1.26.535-.496 0-.904-.178-1.223-.535-.32-.357-.479-.892-.479-1.606V22.963l-2.962 11.902a22.387 22.387 0 01-.479 1.708c-.117.357-.34.684-.668.981-.328.297-.781.446-1.361.446-.437 0-.807-.098-1.11-.293a2.005 2.005 0 01-.705-.727 4.444 4.444 0 01-.403-.98l-.29-1.135zM105.501 19h4.878c1.269 0 2.357.119 3.264.357a5.984 5.984 0 012.471 1.338C118.038 22.36 119 24.892 119 28.29c0 1.121-.097 2.145-.29 3.07a9.196 9.196 0 01-.895 2.511 7.81 7.81 0 01-1.55 1.988 6.415 6.415 0 01-1.626 1.083 7.292 7.292 0 01-1.903.574c-.672.11-1.433.165-2.281.165h-4.878c-.681 0-1.193-.101-1.538-.305a1.5 1.5 0 01-.68-.88c-.101-.382-.152-.875-.152-1.478V21.32c0-.815.181-1.406.542-1.771.362-.365.946-.548 1.752-.548zm1.45 2.995v12.679h2.836c.621 0 1.109-.017 1.462-.05a4.523 4.523 0 001.096-.256c.378-.136.706-.327.983-.573 1.252-1.07 1.878-2.914 1.878-5.53 0-1.844-.277-3.225-.832-4.142-.546-.918-1.222-1.5-2.029-1.746-.806-.255-1.781-.382-2.924-.382h-2.47z" fill="#1A1A1A"/><defs><linearGradient id="paint0_linear" x1="58.409" y1="55" x2="58.409" y2="0" gradientUnits="userSpaceOnUse"><stop stop-color="#B3EFE8"/><stop offset="1" stop-color="#E8EDCF"/></linearGradient></defs></svg>