<svg width="234" height="55" fill="none" xmlns="http://www.w3.org/2000/svg"><path opacity=".9" fill-rule="evenodd" clip-rule="evenodd" d="M156.435 27.801v6.397c0 .4.118.618.495.709a1.5 1.5 0 011.175 1.446 38.862 38.862 0 010 4.039c-.066.447-.304.85-.662 1.117a1.637 1.637 0 01-1.244.307 1.7 1.7 0 01-1.229-.565 1.765 1.765 0 01-.448-1.296v-1.319c0-.309-.104-.467-.422-.467h-8.437c-.31 0-.436.15-.443.46.006.624-.027 1.248-.096 1.868a1.77 1.77 0 01-1.755 1.318 1.776 1.776 0 01-1.673-1.423 37.267 37.267 0 010-4.039 1.497 1.497 0 011.241-1.454c.687-.143.901-.754 1.116-1.266a12.03 12.03 0 00.738-3.707c.178-2.798.333-5.598.466-8.401a2.09 2.09 0 011.189-1.96c.311-.131.646-.196.983-.188h6.782a2.048 2.048 0 011.635.627c.427.444.64 1.059.582 1.679-.037 2.034.007 4.076.007 6.118zm-3.636.95v-5.5c0-.423-.14-.58-.561-.573h-2.956c-.362 0-.517.098-.532.497-.059 1.876-.103 3.767-.236 5.636-.089 1.273-.288 2.547-.495 3.805a16.713 16.713 0 01-.48 1.613c-.133.49-.089.542.421.542h4.241c.561 0 .591 0 .591-.618.005-1.803.005-3.606 0-5.41l.007.008zm-58.047-.89c-.436.867-.872 1.741-1.308 2.607-.436.867-.857 1.794-1.322 2.675a2.104 2.104 0 01-1.478 1.296 2.04 2.04 0 01-2.327-1.333l-2.527-5.109a1.887 1.887 0 00-.162-.203c-.036.224-.06.45-.074.678v7.904c.067.994-.643 1.867-1.614 1.983-.97.117-1.86-.563-2.021-1.546a3.858 3.858 0 010-.422V21.2a1.93 1.93 0 01.783-1.809 2.178 2.178 0 011.749-.143c.577.2 1.048.633 1.302 1.198 1.39 2.856 2.8 5.704 4.204 8.545.075.107.165.204.266.286.089-.09.207-.158.259-.271 1.403-2.848 2.805-5.697 4.204-8.545a2.118 2.118 0 011.27-1.252 2.062 2.062 0 011.759.182c.569.349.901.99.864 1.666v15.325c.094.92-.53 1.756-1.426 1.907a1.767 1.767 0 01-1.5-.315 1.842 1.842 0 01-.716-1.38v-8.183a5.337 5.337 0 00-.06-.573l-.125.022zm32.419-.788a1.452 1.452 0 00-.288.286 8124.134 8124.134 0 00-4.433 7.844c-.362.648-.739 1.31-1.094 1.951a2.114 2.114 0 01-1.366 1.129 2.07 2.07 0 01-1.729-.322 3.45 3.45 0 01-.702-1.16 1.229 1.229 0 010-.513v-15.19a1.875 1.875 0 01.783-1.658 1.715 1.715 0 011.795-.136c.673.294 1.1.98 1.071 1.726v8.937c.012.191.034.382.067.572h.126l1.078-1.922c1.559-2.78 3.103-5.568 4.677-8.34.272-.523.739-.91 1.296-1.076a2.105 2.105 0 011.659.201c.416.242.692.675.739 1.16 0 .264.052.528.052.8v14.813a2.006 2.006 0 01-.806 1.876c-1.167.753-2.718-.15-2.748-1.206 0-.263-.044-.527-.044-.798v-8.959l-.133-.015zm45.969 1.654c0 1.1.037 2.193 0 3.293a6.546 6.546 0 01-2.217 4.867 6.03 6.03 0 01-2.822 1.342 8.115 8.115 0 01-3.391 0 5.833 5.833 0 01-4.381-3.496 8.62 8.62 0 01-.739-3.64v-5.312a7.518 7.518 0 011.219-4.053 5.601 5.601 0 013.258-2.261 8.496 8.496 0 013.746-.188c2.179.206 4.048 1.672 4.802 3.767a9.116 9.116 0 01.518 3.263v2.448l.007-.03zm-9.863-.053v2.442c.011.579.086 1.155.222 1.718a2.637 2.637 0 002.172 2.087c2.002.354 3.694-.633 3.768-2.909.074-2.275 0-4.438 0-6.66a2.63 2.63 0 00-1.367-2.434 3.74 3.74 0 00-3.576.128 3.032 3.032 0 00-1.152 2.373c-.067 1.093-.052 3.255-.067 3.255zm-61.965.064v-3.24a6.868 6.868 0 011.219-3.843 5.702 5.702 0 013.206-2.26 8.541 8.541 0 013.65-.196c2.712.384 4.677 1.981 5.172 4.965.372 2.732.419 5.5.14 8.243a6.05 6.05 0 01-2.822 4.913 7.176 7.176 0 01-4.544.995 6.559 6.559 0 01-3.332-1.085 5.513 5.513 0 01-2.453-3.707 35.245 35.245 0 01-.236-4.785zm9.855-.045v-2.441a9.187 9.187 0 00-.236-1.756 2.325 2.325 0 00-1.633-1.778 5.281 5.281 0 00-2.083-.12c-1.214.217-2.127 1.248-2.217 2.501-.044 2.373-.066 4.754 0 7.128.028 1.355 1.007 2.493 2.32 2.697 1.374.219 2.859-.09 3.473-1.725a7.065 7.065 0 00.347-1.967c.074-.844.029-1.695.029-2.539zm106.738.058V32a6.483 6.483 0 01-2.393 5.018 6.033 6.033 0 01-2.778 1.213c-1 .182-2.023.182-3.022 0-2.017-.285-3.748-1.61-4.581-3.504a8.885 8.885 0 01-.739-3.707v-4.747a8.6 8.6 0 01.843-3.956 5.496 5.496 0 013.804-2.923 8.458 8.458 0 015.246.294 5.494 5.494 0 013.125 3.255 9.607 9.607 0 01.54 3.594v2.208l-.045.007zm-3.693.002v-3.42a2.594 2.594 0 00-1.33-2.359 3.39 3.39 0 00-1.522-.414 3.196 3.196 0 00-2.128.55 2.505 2.505 0 00-1.049 1.899c-.066 2.463 0 4.935 0 7.406.008.11.03.22.067.324a2.731 2.731 0 002.135 2.193c1.943.4 3.694-.505 3.849-2.848.059-1.13-.022-2.246-.022-3.36v.03zm-38.353-.024V21.02a1.96 1.96 0 011.344-1.816 1.792 1.792 0 012.158.995c.115.29.17.6.162.912v5.357c.023.176.067.348.133.512a1.7 1.7 0 00.466-.308c1.536-2.09 3.066-4.185 4.588-6.285.554-.753 1.174-1.363 2.216-1.19.899.207 1.508 1.06 1.426 1.997a2.066 2.066 0 01-.384.753 665.708 665.708 0 01-4.632 6.254c-.289.384-.37.648-.045 1.085a522.368 522.368 0 014.433 6.028c.263.304.47.654.613 1.032.303 1.085-.968 2.26-2.039 2.05a2.328 2.328 0 01-1.404-.98c-1.61-2.19-3.218-4.38-4.824-6.57a1.653 1.653 0 00-.421-.302 1.88 1.88 0 00-.118.468v5.5c.074.925-.576 1.747-1.478 1.869a1.757 1.757 0 01-1.973-.995 3.313 3.313 0 01-.221-1.123c-.008-2.554 0-5.04 0-7.534zm44.816.233v-7.331a2.024 2.024 0 011.197-2.042c.34-.138.704-.207 1.071-.203 1.581 0 3.169-.068 4.743.06 2.335.188 4.337 1.273 5.172 3.767a6.743 6.743 0 01-.687 6.028 5.553 5.553 0 01-3.31 2.208 14.698 14.698 0 01-3.842.279c-.695 0-.702 0-.702.7v4.137c-.021.77-.52 1.44-1.241 1.665a1.825 1.825 0 01-1.716-.301 1.906 1.906 0 01-.715-1.62v-6.533c.02-.261.03-.532.03-.814zm3.642-3.436v2.396c0 .331.133.505.465.482a28.774 28.774 0 003.022-.234 2.348 2.348 0 001.182-.798 3.063 3.063 0 00.436-2.766 2.016 2.016 0 00-1.589-1.65c-.99-.18-2.009-.173-3.014-.256-.384 0-.517.143-.51.527.015.761.008 1.53.008 2.299zM198.26 30v6.487a1.74 1.74 0 01-1.204 1.786 1.78 1.78 0 01-1.645-.236 1.858 1.858 0 01-.764-1.504V23.505c0-.806 0-.806-.798-.814-.798-.007-1.537 0-2.305-.037a1.56 1.56 0 01-1.104-.6 1.622 1.622 0 01-.322-1.231 1.903 1.903 0 011.352-1.387 4.3 4.3 0 01.687-.06h8.667a2.004 2.004 0 011.477.46c.494.358.713.995.547 1.59a1.628 1.628 0 01-1.426 1.228c-.842.067-1.692 0-2.534.045-.554 0-.606.052-.606.625V30h-.022zm-76.903-15.934c.31.174.628.34.931.535.45.287.879.61 1.344.867a1.296 1.296 0 001.419-.241c.391-.264.739-.595 1.138-.867a1.115 1.115 0 011.529.189 1.23 1.23 0 01.059 1.446 3.851 3.851 0 01-2.955 1.937 4.373 4.373 0 01-3.694-1.063 2.164 2.164 0 01-.857-1.507 1.206 1.206 0 011.086-1.296z" fill="#000"/><path fill-rule="evenodd" clip-rule="evenodd" d="M58.41 27.496C58.428 12.416 46.506.14 31.702 0H18.82a12.457 12.457 0 00-8.885 3.763 12.93 12.93 0 00-3.67 9.06v29.354a12.93 12.93 0 003.67 9.06A12.457 12.457 0 0018.82 55h12.873c14.805-.141 26.727-12.416 26.709-27.496" fill="url(#paint0_linear)"/><path fill-rule="evenodd" clip-rule="evenodd" d="M27.95 42.037a1.492 1.492 0 01-1.45-1.31l-2.508-18.33-1.376 6.402c-.543 2.491-2.706 4.267-5.211 4.28H.94a.95.95 0 01-.94-.958.95.95 0 01.94-.958h16.473c1.625-.01 3.026-1.163 3.38-2.778l1.742-8.096c.17-.75.839-1.27 1.593-1.24.755.03 1.382.604 1.493 1.365l2.378 17.542 4.144-24.393a1.498 1.498 0 011.49-1.278 1.5 1.5 0 011.474 1.31l2.199 14.815c.24 1.581 1.571 2.752 3.143 2.762h27.245c.52 0 .94.428.94.958a.95.95 0 01-.94.958H40.457c-2.495-.02-4.608-1.877-4.992-4.388l-1.864-12.558-4.194 24.634a1.49 1.49 0 01-1.465 1.261" fill="#2A3D44"/><defs><linearGradient id="paint0_linear" x1="58.41" y1="55" x2="58.41" y2="0" gradientUnits="userSpaceOnUse"><stop stop-color="#B3EFE8"/><stop offset="1" stop-color="#E8EDCF"/></linearGradient></defs></svg>