<svg width="350" height="349" fill="none" xmlns="http://www.w3.org/2000/svg"><circle cx="175.5" cy="174.5" r="174.5" fill="#EAEAEA"/><mask id="a" maskUnits="userSpaceOnUse" x="0" y="0" width="349" height="349"><circle cx="174.5" cy="174.5" r="174.5" fill="#FED141"/></mask><g mask="url(#a)"><path fill="#fff" d="M73 108h203v98H73z"/><path fill="#FED141" d="M124 108h152v98H124z"/><path fill="#FED141" d="M159 205h33v36h-33z"/><path fill="#fff" d="M112 242h125v122H112z"/><path fill="#FED141" d="M148 242h89v122h-89z"/></g><circle cx="231" cy="157" r="19" fill="#000"/><ellipse cx="231" cy="156.5" rx="7" ry="7.5" fill="#fff"/><circle cx="125" cy="157" r="19" fill="#000"/><ellipse cx="125" cy="156.5" rx="7" ry="7.5" fill="#fff"/><path fill="#000" d="M140 89h75v19h-75z"/><path stroke="#000" stroke-width="5" d="M76.5 107.5h198v96h-198zm36.5 135h124.5V337m-45-131.5v36"/><path fill="#EAEAEA" d="M72 103h7v110h-7z"/></svg>