<svg width="349" height="351" fill="none" xmlns="http://www.w3.org/2000/svg"><circle cx="174.5" cy="174.5" r="174.5" fill="#000"/><path d="M228.475 130.525a3.5 3.5 0 00-4.95 0l-22.274 22.274a3.5 3.5 0 104.95 4.95L226 137.95l19.799 19.799a3.5 3.5 0 104.95-4.95l-22.274-22.274zM132.5 347a3.5 3.5 0 107 0h-7zm3.5-124.5V219h-3.5v3.5h3.5zm90 0v3.5h3.5v-3.5H226zm-93.5 0V347h7V222.5h-7zm90-89.5v89.5h7V133h-7zm3.5 86h-90v7h90v-7z" fill="#fff"/><circle cx="213" cy="283" r="20.5" fill="#fff" stroke="#fff"/><circle cx="91.5" cy="139.5" r="59" fill="#fff" stroke="#fff"/><circle cx="226" cy="70" r="34" fill="#FED141"/><path d="M210 66.963L222.5 80 245 58" stroke="#000" stroke-width="8" stroke-linecap="round"/></svg>