<svg version="1.0" xmlns="http://www.w3.org/2000/svg" width="933.333" height="933.333" viewBox="0 0 700 700"><path d="M385 27.7c-26.4 3.1-54.2 16.6-73.3 35.8-24.8 24.7-37.6 55.6-37.7 90.5-.1 61.4 44.4 113.9 105.4 124.5 11.3 1.9 30.8 1.9 42.2 0 67.7-11.5 114.2-75.7 103.9-143.6-2.9-19.6-12-41.5-23.7-56.9-7.2-9.6-21.4-23.3-30.6-29.4-9.3-6.2-25.9-14-35.2-16.6-15.2-4.2-36.3-6-51-4.3zm89.1 69.5c12.1 6 21.1 16.9 24.3 29.3 5.1 19.5-2.7 39.8-19.4 50.5-19.5 12.5-46.1 8.3-60.3-9.4-20.1-25.4-9.6-61.8 20.8-72.5 4.9-1.8 7.9-2.1 16.6-1.9 9.9.3 11 .6 18 4z"/><path d="M443.5 118.2c-13.8 7.6-16.1 27.4-4.3 37.3 4.7 4 8.9 5.5 15 5.5 6.8 0 12.3-2.6 17-7.8 5.8-6.4 7.2-15.2 3.8-23.7l-1.1-3-2.1 2.8c-4.2 5.7-11.6 7.3-17.5 3.7-4.5-2.7-6.5-6.2-6.5-11.5 0-4.7-.7-5.3-4.3-3.3zm140.3-16.4c-20.7 5.9-37.9 11-38.3 11.4-.4.3.3 5 1.5 10.5 4.8 21.6 3.6 49.9-3 72.2-4.1 13.6-4.1 13.3 2.3 12.5 31.8-4.1 61.1-26.8 73.4-56.9 5.1-12.8 6.7-21 6.6-36-.1-12.7-1.8-23.6-3.8-24.1-.6-.1-18 4.6-38.7 10.4zm-65.2 143.7c-6.1 8.5-24.2 25.5-34.5 32.3-38 25.3-83.1 32.3-126.2 19.5l-8.5-2.5-8.5 5.5c-20.6 13.4-45.2 25.2-69.4 33.2-15 5-77.2 22.7-92 26.2-39.5 9.2-82.1 1.1-116.7-22.2-2.9-1.9-5.4-3.3-5.6-3-.7.7 2 22.9 4.3 36 7.6 41.1 26.2 81.7 52.5 114.4 10 12.4 31.9 33.7 44 42.7 38.1 28.6 80.6 45.7 127.5 51.5 14.4 1.7 45.5 1.5 60.5-.5 12.7-1.7 28.7-5 39.5-8.1l5.9-1.8-9.7-2.8C328.1 550 285.6 514.4 262 465.5c-5.2-10.6-12-28.5-12-31.2 0-.6 2.8-1.8 6.3-2.7 3.4-.8 8.3-2.2 10.9-3l4.6-1.5 2.7 8.2c4 12.4 12.5 29.4 20.6 41.4 9.1 13.4 28.4 33 41.9 42.6 18.1 12.8 41.2 22.7 65.1 27.9 8.9 1.9 13.4 2.2 31.9 2.2 18.7 0 22.9-.3 31.9-2.2 22.1-4.9 44.8-14.1 60.6-24.7 38.2-25.8 64.8-66.1 73.1-111 2.6-13.9 2.6-47 .1-60-8.1-41.1-30.2-77.2-62.2-101.6-5.6-4.3-14.1-10-14.7-9.9-.2.1-2.1 2.5-4.2 5.5zm-42.8 97.1c15.4 3.2 28.7 10.7 39.4 22.3 7.9 8.6 12.2 15.7 16.2 26.8 3 8.4 3.1 9.5 3.1 23.8 0 13.8-.2 15.6-2.8 23-4.2 11.9-9.9 20.9-19.2 30.1-12.4 12.4-27.8 19.2-50 22.3-32.5 4.6-67.4-3.7-95.5-22.5-15.6-10.4-33.7-30.1-42.8-46.6-7.1-12.8-16.4-39-14.5-40.8.4-.5 13.2-4.3 28.3-8.5 32.6-9.2 46.5-13 78.3-22 13.1-3.6 26.6-7.2 30-8 8.5-1.8 20.3-1.8 29.5.1z"/><path d="M443.5 367c-6 1.6-27.9 7.6-48.5 13.5-20.6 5.8-41.8 11.8-47 13.2-5.2 1.4-9.7 2.8-9.9 2.9-.2.2 1.3 3.7 3.2 7.9 13.5 28.4 40.3 51 71 59.9 18.1 5.3 40.1 5.9 57.6 1.6 25.6-6.2 42-26 42.1-50.5 0-28.1-23-51.3-51-51.4-4 0-10.7 1.1-17.5 2.9zm-166 271.6c-102.6 2.7-144.8 7.2-105.8 11.3 75.2 8.1 362.5 7.3 412.1-1.1 18.7-3.1-3.8-6.1-67.3-8.9-22.2-1-211.7-2-239-1.3z"/></svg>