<svg version="1.0" xmlns="http://www.w3.org/2000/svg" width="658.667" height="658.667" viewBox="0 0 494 494"><path d="M125 49.7c-21.3 3.6-38.1 11.8-51.9 25.4-15 14.9-23.9 33-26.8 54.9-.4 2.5-.7 35.7-.7 73.7l-.1 69.3H25.4c-17.8 0-20.4.2-22.3 1.8-3.1 2.4-3.1 7.9-.1 10.4 2 1.6 4.3 1.8 22.4 1.8h20.2l-.1 35.2c0 31.4.4 41.3 1.9 48.3 1.6 7.5 2.6 10.8 5 16.7 2.8 7.1 7.5 15.3 12.2 21.6 5.2 7 17 17.9 23.6 21.7 10.3 6 22.2 10.9 29.4 11.9 2.2.4 6.2 1 8.9 1.4 6 .9 108.2.8 117.6-.2 8.6-.8 23-3.3 29.9-5.2 3-.8 6.6-1.7 8-2 1.3-.3 3-1 3.7-1.6.7-.6 1.3-.8 1.3-.5 0 .9 15.1-5.2 25.1-10.3 38.2-19.1 68.9-50.2 87.9-89 1.5-3 3.4-7.1 4.3-9 2.7-6 8.4-23.1 10.3-31.3l1.8-7.7h73.5l2-2.6c2.7-3.5 2.6-5.9-.4-8.9l-2.4-2.5H419l.7-10.3c1.2-17.3.6-34.3-1.7-46.9-.5-2.9-1.2-6.9-1.5-8.8-4.5-27.4-21.2-62.8-41-87-9.4-11.5-23.9-25.2-36-34-25.9-18.8-52.3-29.5-88-35.6-4.3-.8-122.4-1.4-126.5-.7z"/></svg>