<svg version="1.1" id="Layer_1" xmlns="http://www.w3.org/2000/svg" x="0" y="0" viewBox="0 0 575 558" xml:space="preserve"><style>.st3{fill:none;stroke:#fed141;stroke-width:18;stroke-linecap:round;stroke-linejoin:round}</style><path fill="#eee" d="M0 0h575v558H0z"/><path d="M153.6 371.9h351.1c16.6 0 30 13.4 30 30v82.3c0 16.6-13.4 30-30 30H153.6c-16.6 0-30-13.4-30-30v-82.3c0-16.6 13.5-30 30-30z" fill="#fff"/><path d="M202.3 407.3c1.4-1.6 3-3 4.9-3.9s4-1.5 6.1-1.6c.2 2 0 4.1-.6 6s-1.6 3.7-2.9 5.3c-1.2 1.8-2.9 3.3-4.8 4.3s-4.1 1.6-6.2 1.6c-.2-2.1 0-4.2.6-6.2.5-2 1.6-3.9 2.9-5.5zm21 59.8c-3 4.6-6.6 9.8-11.8 9.8-5.1 0-6.7-3.3-12.4-3.3s-7.8 3.3-12.4 3.3c-4.6 0-8.5-5.1-11.8-9.8-4.6-7.4-7.1-15.9-7.2-24.7-.2-4.6 1-9.1 3.3-13 1.6-2.8 3.8-5.2 6.6-6.9 2.7-1.7 5.8-2.7 9.1-2.9 4.9 0 9.3 3.3 12.4 3.3 4.7-1.4 9.4-2.5 14.3-3.3 2.7.1 5.4.9 7.8 2.2 2.4 1.4 4.4 3.3 5.9 5.6-2.5 1.4-4.7 3.5-6.2 5.9s-2.3 5.3-2.3 8.2c.1 3.3 1.2 6.4 3 9.1 1.9 2.7 4.4 4.8 7.4 6-1.2 3.7-3 7.2-5.2 10.4l-.5.1z"/><path d="M575 420H364.6c-15.2 0-27.5-12.3-27.5-27.5v-73.3c0-15.2 12.3-27.5 27.5-27.5H575" fill="none" stroke="#000" stroke-width="5"/><path class="st3" d="M407.5 508.6l29.6-53.3"/><path d="M258.1 557.9h213.1c-10.6-49.8-54.3-87.2-106.6-87.2s-95.9 37.4-106.5 87.2z" fill-rule="evenodd" clip-rule="evenodd" fill="#fed141"/><ellipse cx="407.8" cy="522.3" rx="8.4" ry="8.5"/><path class="st3" d="M323.2 508.6l-29.6-53.3"/><ellipse cx="326.1" cy="522.3" rx="8.4" ry="8.5"/></svg>