<svg version="1.1" id="Layer_1" xmlns="http://www.w3.org/2000/svg" x="0" y="0" viewBox="0 0 573 557" xml:space="preserve"><style>.st1{fill:#fed141}</style><path d="M573 0H0v426.4c6.4-7.6 16.2-12.3 27-12 4-28.3 28.3-50 57.7-50 23.8 0 44.2 14.3 53.3 34.7 2-.2 4-.4 6-.4 22.7 0 41.1 18.4 41.1 41.1 0 9.3-3.1 18-8.4 24.9h186.6v5H0V557h573V0z"/><path d="M284.1 313.6c0 11 9 20 20 20h103.5c1 0 1.9.4 2.7 1l44.1 36.8v-33.5c0-2.3 1.9-4.2 4.2-4.2h1.3c11 0 20-9 20-20v-74.2c0-11-9-20-20-20h-156c-11 0-20 9-20 20v74.1h.2z" fill="#eee"/><path class="st1" d="M437.3 434.6l-.1.5c-2.9-.2-5.7-1.1-8.2-2.5s-4.7-3.4-6.3-5.8c-1.7-2.4-2.8-5.1-3.2-8-.5-2.9-.3-5.8.5-8.6l16.6 4.7c-2 6.4-1.7 13.4.7 19.7zm102 26.7c-.1 3.3-.6 6.6-1.3 9.8-.2.9-.4 1.7-.7 2.6-.8 2.7-1.7 5.3-2.9 7.9-5.4 11.8-14.8 21.3-26.6 26.7-11.8 5.4-25.1 6.5-37.5 3l-1.7-.5c7.1-1.6 13.6-5.1 18.9-10.1s9.1-11.3 11.1-18.4L494 481c-1.4 4.9-3.8 9.5-7.2 13.4-3.3 3.9-7.5 7-12.1 9.2-4.7 2.2-9.7 3.3-14.9 3.3-5.1 0-10.2-1.1-14.9-3.2-2-.9-3.9-2-5.7-3.3-5.6-4-10-9.5-12.5-15.9-.2-.5-.4-.9-.5-1.4-2.4-6.8-2.6-14.2-.7-21.1v-.2c.2-.8.5-1.6.8-2.4 2.2-5.9 5.9-11.2 10.9-15.1 1-.8 2.1-1.6 3.2-2.3l.7-.4c4 5.7 9.7 9.9 16.3 12 6.6 2.1 13.7 1.9 20.2-.4l1.3.9c1.6 1.1 3.3 2.1 5.1 3s3.6 1.8 5.5 2.6c2.4 1 5 1.9 7.5 2.6l14.9 4.1c4.6 1.3 9.5 1.6 14.3.7 4.8-1 9.3-2.9 13.1-5.8zm-55.4 16.9c.7-1.5 1.3-3 1.8-4.6l.7-2.3-25.3-7.1-2.6-.7c-2-.6-4.1-.7-6.1-.5s-4 .9-5.8 1.9-3.4 2.4-4.7 4c-1.3 1.6-2.2 3.5-2.8 5.5-.6 2-.7 4.1-.5 6.1s.9 4 1.9 5.8 2.4 3.4 4 4.7c1.6 1.3 3.5 2.2 5.5 2.8 6.6 1.8 13.6 1.3 19.8-1.5 6.1-3 11.1-8 14.1-14.1z"/><path d="M437.3 434.6l-.1.5h.3c0-.2-.1-.3-.2-.5z" fill="#f8dc5b"/><path class="st1" d="M457.1 468.1c-2.4-.7-4.9-.5-7.2.5-.9.4-1.7.9-2.4 1.4-1.6 1.2-2.8 2.9-3.5 4.7-.7 1.9-.9 3.9-.5 5.9s1.3 3.8 2.7 5.2c1.4 1.5 3.1 2.5 5 3.1 5.7 1.6 11.9 1 17.2-1.6 5.3-2.6 9.5-7.2 11.7-12.7l-20.5-5.8-2.5-.7zm9.8-71.4c5.3 0 10.4 1.6 14.8 4.5s7.8 7.1 9.8 12 2.5 10.2 1.5 15.4c-1 5.2-3.6 9.9-7.3 13.7-3.7 3.7-8.5 6.3-13.7 7.3s-10.5.5-15.4-1.5-9-5.4-12-9.8-4.5-9.6-4.5-14.8c0-7.1 2.8-13.9 7.8-18.9 5.1-5.1 11.9-7.9 19-7.9zm-11.4 33.2c1.9 0 3.8-.6 5.4-1.6 1.6-1.1 2.8-2.6 3.6-4.3.7-1.8.9-3.7.6-5.6-.4-1.9-1.3-3.6-2.6-5-1.4-1.4-3.1-2.3-5-2.7-1.9-.4-3.8-.2-5.6.5-1.8.7-3.3 2-4.4 3.6s-1.6 3.5-1.6 5.4c0 1.3.2 2.5.7 3.7s1.2 2.2 2.1 3.1 2 1.6 3.1 2.1c1.2.5 2.5.8 3.7.8z"/><path class="st1" d="M451.5 417.6c.1.4.3.7.6 1 .3.3.6.5.9.7.4.2.7.3 1.1.3s.8-.1 1.1-.2c.4-.1.7-.4 1-.6.3-.3.5-.6.6-1s.2-.8.2-1.1c0-.4-.1-.8-.3-1.1 1 .2 1.9.8 2.5 1.6.7.8 1 1.8 1.1 2.8s-.2 2-.7 2.9-1.3 1.5-2.3 1.9c-.9.4-2 .4-3 .2s-1.9-.8-2.5-1.6c-.7-.8-1-1.8-1.1-2.8 0-1.1.2-2.1.8-3z"/><path d="M90.9 364.7c15.8 1.7 29.7 9.7 39.2 21.4 4.9-.1 9.8-1.1 14.6-2.9 5.1-2 9.7-4.8 13.6-8.3-17.9.1-34.8-10.7-41.6-28.4-6.8-17.7-1.5-37.1 11.9-49-5.2 0-10.5 1-15.6 3-22.8 8.8-34.3 34.4-25.5 57.2.9 2.5 2 4.8 3.4 7z" fill-rule="evenodd" clip-rule="evenodd" fill="#fed141"/></svg>