<?xml version="1.0" encoding="utf-8"?>
<!-- Generator: Adobe Illustrator 24.0.1, SVG Export Plug-In . SVG Version: 6.00 Build 0)  -->
<svg version="1.1" id="Layer_1" xmlns="http://www.w3.org/2000/svg" xmlns:xlink="http://www.w3.org/1999/xlink" x="0px" y="0px"
	 viewBox="0 0 573 557" style="enable-background:new 0 0 573 557;" xml:space="preserve">
<style type="text/css">
	.st0{fill:#EEEEEE;}
	.st1{fill:#FFFFFF;}
	.st2{fill:#FED141;}
	.st3{fill:none;stroke:#000000;stroke-width:5;}
</style>
<rect y="0" class="st0" width="573" height="556.3"/>
<path class="st1" d="M483.2,382.9H462v-32.7c0.1,0,0.3,0,0.5,0c6.2,0,11.2-5,11.2-11.2c0-6.2-5-11.2-11.2-11.2c-0.1,0-0.3,0-0.5,0
	v-11.2h-0.3v-4.9c0-7.9-6.4-14.3-14.4-14.3h-49.8v43.7c0,16.2,12,29.6,27.6,31.8v10h-12.9c-10.3,0-20.1,4.4-27.1,12l-77.4,85.7
	l9.9-0.8c7.7-7.2,18-11.3,28.7-11.3h162.2l9.9-40.7C524.1,404.9,506.8,382.9,483.2,382.9z"/>
<path d="M433.3,510h-84.9c-23.6,0-42.8-19.1-42.8-42.7h127.7V510z"/>
<path d="M445.1,524.7c-2.3,0-4.6-0.8-6.6-2.3c-4.5-3.6-5.2-10.2-1.6-14.7l40.4-50c3.6-4.5,10.2-5.2,14.7-1.6
	c4.5,3.6,5.2,10.2,1.6,14.7l-40.4,50C451.1,523.4,448.1,524.7,445.1,524.7z"/>
<path class="st1" d="M422.7,524.2c-5.3,0-10.7-1.6-15.3-4.9l-87.8-62.4l-40.1,6.5c-14.4,2.3-27.9-7.5-30.3-21.8
	c-2.3-14.4,7.5-27.9,21.9-30.2l50.7-8.2c6.9-1.1,13.9,0.5,19.5,4.6l76.4,54.3l46.6-57.6c9.2-11.3,25.8-13.1,37.1-3.9
	c11.3,9.2,13.1,25.8,3.9,37.1l-62.2,76.9C438,520.8,430.4,524.2,422.7,524.2z"/>
<path d="M434.3,324.6c2.4,0,4.3-1.9,4.3-4.3c0-2.4-1.9-4.3-4.3-4.3c-2.4,0-4.3,1.9-4.3,4.3C430,322.6,432,324.6,434.3,324.6z"/>
<path d="M402.6,324.6c2.4,0,4.3-1.9,4.3-4.3c0-2.4-1.9-4.3-4.3-4.3c-2.4,0-4.3,1.9-4.3,4.3C398.3,322.6,400.2,324.6,402.6,324.6z"/>
<path d="M418.8,340.2v-16.5h-0.2c0-0.4,0.1-0.8,0.1-1.2c0-8.4-6.9-15.3-15.3-15.3c-8.4,0-15.3,6.9-15.3,15.3s6.9,15.3,15.3,15.3
	c4.3,0,8.2-1.8,11-4.6v11.5h10.8v-4.4H418.8z M403.4,333.4c-6,0-10.9-4.9-10.9-10.8s4.9-10.8,10.9-10.8c6,0,10.9,4.9,10.9,10.8
	C414.3,328.5,409.4,333.4,403.4,333.4z"/>
<path d="M436.3,337.8c-8.4,0-15.3-6.9-15.3-15.3s6.9-15.3,15.3-15.3c8.4,0,15.3,6.9,15.3,15.3S444.7,337.8,436.3,337.8z
	 M436.3,311.7c-6,0-10.9,4.9-10.9,10.8c0,6,4.9,10.8,10.9,10.8c6,0,10.9-4.9,10.9-10.8S442.3,311.7,436.3,311.7z"/>
<path d="M428.3,364.1v-4.7c2.4,0,4.6-0.9,6.4-2.5l3.2,3.4C435.3,362.8,431.9,364.1,428.3,364.1z"/>
<path d="M446.6,416.2v3.7c0.9,0,1.8,0,2.7,0.1l-31.9,39.4L382,434.2v-11.6h-3.7v9l-14.4-10.2l22.7-25.2c6.5-7.3,15.9-11.4,25.7-11.4
	h2.8c1.4,13.6,13,24.3,27,24.3c15,0,27.1-12.2,27.1-27.1h-3.7c0,12.9-10.5,23.4-23.4,23.4c-12,0-21.9-9-23.3-20.6h6.4v0.1
	c15.9,0,29.1-11.6,31.6-26.7c-5.7,9-15.7,15.1-27.2,15.1c-1.5,0-3-0.1-4.4-0.3v8.2h-12.9c-10.8,0-21.2,4.6-28.4,12.6l-23,25.5
	l-18.4-13.1c-6.1-4.3-13.5-6.1-20.9-4.9l-32.4,5.2l-7.4-17.3c-4.2-9.9-13.9-16.3-24.7-16.3H153.9c-8.2,0-13.7,8.4-10.5,15.9
	l33.7,78.6h138.1l-24.6-57.4l31.5-5.1c6.4-1,12.9,0.5,18.1,4.2l77.8,55.3l35.6-44c21.8,3.4,38.5,22.3,38.5,45h3.7
	C495.9,438.3,473.8,416.2,446.6,416.2z"/>
<path d="M397.5,297.4h49.8c7.9,0,14.4,6.4,14.4,14.3v4.9h0.3v11.2c0.1,0,0.3,0,0.5,0c2.3,0,4.5,0.7,6.3,1.9v-44.9
	c0-10.3-8.4-18.7-18.7-18.7h-33.2c-10.6,0-19.3-8.6-19.3-19.2c-14,0-25.3,11.3-25.3,25.3C372.2,286,383.5,297.4,397.5,297.4z"/>
<path class="st2" d="M237.7,439.7c6.1-6.8,4.1-18.6-4.6-26.3c-8.6-7.7-20.6-8.4-26.7-1.5c-6.1,6.8-4.1,18.6,4.6,26.3
	C219.7,445.9,231.6,446.6,237.7,439.7z"/>
<path class="st3" d="M307.6,467.2H0"/>
</svg>
