<svg version="1.1" id="Layer_1" xmlns="http://www.w3.org/2000/svg" x="0" y="0" viewBox="0 0 573 557" xml:space="preserve"><style>.st1{fill:#fff}</style><path fill="#eee" d="M0 0h573v556.3H0z"/><path class="st1" d="M483.2 382.9H462v-32.7h.5c6.2 0 11.2-5 11.2-11.2 0-6.2-5-11.2-11.2-11.2h-.5v-11.2h-.3v-4.9c0-7.9-6.4-14.3-14.4-14.3h-49.8v43.7c0 16.2 12 29.6 27.6 31.8v10h-12.9c-10.3 0-20.1 4.4-27.1 12l-77.4 85.7 9.9-.8c7.7-7.2 18-11.3 28.7-11.3h162.2l9.9-40.7c5.7-22.9-11.6-44.9-35.2-44.9z"/><path d="M433.3 510h-84.9c-23.6 0-42.8-19.1-42.8-42.7h127.7V510zm11.8 14.7c-2.3 0-4.6-.8-6.6-2.3-4.5-3.6-5.2-10.2-1.6-14.7l40.4-50c3.6-4.5 10.2-5.2 14.7-1.6s5.2 10.2 1.6 14.7l-40.4 50c-2.1 2.6-5.1 3.9-8.1 3.9z"/><path class="st1" d="M422.7 524.2c-5.3 0-10.7-1.6-15.3-4.9l-87.8-62.4-40.1 6.5c-14.4 2.3-27.9-7.5-30.3-21.8-2.3-14.4 7.5-27.9 21.9-30.2l50.7-8.2c6.9-1.1 13.9.5 19.5 4.6l76.4 54.3 46.6-57.6c9.2-11.3 25.8-13.1 37.1-3.9s13.1 25.8 3.9 37.1l-62.2 76.9c-5.1 6.2-12.7 9.6-20.4 9.6z"/><path d="M434.3 324.6c2.4 0 4.3-1.9 4.3-4.3s-1.9-4.3-4.3-4.3-4.3 1.9-4.3 4.3c0 2.3 2 4.3 4.3 4.3zm-31.7 0c2.4 0 4.3-1.9 4.3-4.3s-1.9-4.3-4.3-4.3-4.3 1.9-4.3 4.3c0 2.3 1.9 4.3 4.3 4.3z"/><path d="M418.8 340.2v-16.5h-.2c0-.4.1-.8.1-1.2 0-8.4-6.9-15.3-15.3-15.3s-15.3 6.9-15.3 15.3 6.9 15.3 15.3 15.3c4.3 0 8.2-1.8 11-4.6v11.5h10.8v-4.4h-6.4zm-15.4-6.8c-6 0-10.9-4.9-10.9-10.8s4.9-10.8 10.9-10.8 10.9 4.9 10.9 10.8-4.9 10.8-10.9 10.8z"/><path d="M436.3 337.8c-8.4 0-15.3-6.9-15.3-15.3s6.9-15.3 15.3-15.3 15.3 6.9 15.3 15.3-6.9 15.3-15.3 15.3zm0-26.1c-6 0-10.9 4.9-10.9 10.8 0 6 4.9 10.8 10.9 10.8s10.9-4.9 10.9-10.8-4.9-10.8-10.9-10.8zm-8 52.4v-4.7c2.4 0 4.6-.9 6.4-2.5l3.2 3.4c-2.6 2.5-6 3.8-9.6 3.8z"/><path d="M446.6 416.2v3.7c.9 0 1.8 0 2.7.1l-31.9 39.4-35.4-25.2v-11.6h-3.7v9l-14.4-10.2 22.7-25.2c6.5-7.3 15.9-11.4 25.7-11.4h2.8c1.4 13.6 13 24.3 27 24.3 15 0 27.1-12.2 27.1-27.1h-3.7c0 12.9-10.5 23.4-23.4 23.4-12 0-21.9-9-23.3-20.6h6.4v.1c15.9 0 29.1-11.6 31.6-26.7-5.7 9-15.7 15.1-27.2 15.1-1.5 0-3-.1-4.4-.3v8.2h-12.9c-10.8 0-21.2 4.6-28.4 12.6l-23 25.5-18.4-13.1c-6.1-4.3-13.5-6.1-20.9-4.9l-32.4 5.2-7.4-17.3c-4.2-9.9-13.9-16.3-24.7-16.3H153.9c-8.2 0-13.7 8.4-10.5 15.9l33.7 78.6h138.1L290.6 410l31.5-5.1c6.4-1 12.9.5 18.1 4.2l77.8 55.3 35.6-44c21.8 3.4 38.5 22.3 38.5 45h3.7c.1-27.1-22-49.2-49.2-49.2zm-49.1-118.8h49.8c7.9 0 14.4 6.4 14.4 14.3v4.9h.3v11.2h.5c2.3 0 4.5.7 6.3 1.9v-44.9c0-10.3-8.4-18.7-18.7-18.7h-33.2c-10.6 0-19.3-8.6-19.3-19.2-14 0-25.3 11.3-25.3 25.3-.1 13.8 11.2 25.2 25.2 25.2z"/><path d="M237.7 439.7c6.1-6.8 4.1-18.6-4.6-26.3-8.6-7.7-20.6-8.4-26.7-1.5-6.1 6.8-4.1 18.6 4.6 26.3 8.7 7.7 20.6 8.4 26.7 1.5z" fill="#fed141"/><path d="M307.6 467.2H0" fill="none" stroke="#000" stroke-width="5"/></svg>