<svg version="1.1" id="Layer_1" xmlns="http://www.w3.org/2000/svg" x="0" y="0" viewBox="0 0 574 557" xml:space="preserve"><style>.st0{fill:#eee}</style><path class="st0" d="M466.2 435.9c-31.2 0-56.1-27-52.6-58.9 2.9-26.9 26.2-46.9 53.2-46.9H574V0H0v557h573.3c.4 0 .7-.3.7-.7V435.9H466.2z"/><path d="M160.6 557.2h-5v-61.9c0-16.5 13.5-30 30-30H574v5H185.6c-13.8 0-25 11.2-25 25v61.9zm66.6-227.1H330c29.2 0 52.9 23.7 52.9 52.9s-23.7 52.9-52.9 52.9H227.2c-29.2 0-52.9-23.7-52.9-52.9.1-29.2 23.7-52.9 52.9-52.9z"/><path d="M272.6 383c0-25-20.4-45.4-45.4-45.4S181.8 358 181.8 383s20.4 45.4 45.4 45.4c25.1 0 45.4-20.4 45.4-45.4z" fill="#fff"/><path class="st0" d="M511.6 383c0-25-20.4-45.4-45.4-45.4S420.8 358 420.8 383s20.4 45.4 45.4 45.4 45.4-20.4 45.4-45.4z"/><circle cx="92.1" cy="383" r="52.9" fill="#fed141"/><path d="M106.4 353c-.4-.4-.8-.7-1.3-.9-.5-.2-1-.3-1.6-.3-.5 0-1.1.1-1.6.3-.5.2-.9.5-1.3.9L73 380.1c-.4.4-.7.8-.9 1.3-.2.5-.3 1-.3 1.5s.1 1 .3 1.5c.2.5.5.9.9 1.3l27.6 27.1c.4.4.8.7 1.3.9.5.2 1 .3 1.6.3.5 0 1.1-.1 1.6-.3.5-.2 1-.5 1.3-.9.4-.4.7-.8.9-1.3.2-.5.3-1 .3-1.6 0-.5-.1-1.1-.3-1.5-.2-.5-.5-.9-.9-1.3l-24.7-24.3 24.7-24.3c.4-.4.7-.8.9-1.3.2-.5.3-1 .3-1.5s-.1-1-.3-1.5l-.9-1.2z"/></svg>