<?xml version="1.0" encoding="utf-8"?>
<!-- Generator: Adobe Illustrator 24.0.1, SVG Export Plug-In . SVG Version: 6.00 Build 0)  -->
<svg version="1.1" id="Layer_1" xmlns="http://www.w3.org/2000/svg" xmlns:xlink="http://www.w3.org/1999/xlink" x="0px" y="0px"
	 viewBox="0 0 573 557" style="enable-background:new 0 0 573 557;" xml:space="preserve">
<style type="text/css">
	.st0{fill:#EEEEEE;}
	.st1{fill:#FED141;}
	.st2{fill:#F8DC5B;}
	.st3{fill-rule:evenodd;clip-rule:evenodd;fill:#FED141;}
</style>
<path d="M573,0H0v426.4c6.4-7.6,16.2-12.3,27-12c4-28.3,28.3-50,57.7-50c23.8,0,44.2,14.3,53.3,34.7c2-0.2,4-0.4,6-0.4
	c22.7,0,41.1,18.4,41.1,41.1c0,9.3-3.1,18-8.4,24.9h186.6v5H0V557h573V0z"/>
<path class="st0" d="M284.1,313.6c0,11,9,20,20,20h103.5c1,0,1.9,0.4,2.7,1l44.1,36.8v-33.5c0-2.3,1.9-4.2,4.2-4.2h1.3
	c11,0,20-9,20-20v-74.2c0-11-9-20-20-20h-156c-11,0-20,9-20,20v74.1L284.1,313.6L284.1,313.6z"/>
<path class="st1" d="M437.3,434.6l-0.1,0.5c-2.9-0.2-5.7-1.1-8.2-2.5s-4.7-3.4-6.3-5.8c-1.7-2.4-2.8-5.1-3.2-8
	c-0.5-2.9-0.3-5.8,0.5-8.6l16.6,4.7C434.6,421.3,434.9,428.3,437.3,434.6L437.3,434.6z"/>
<path class="st1" d="M539.3,461.3c-0.1,3.3-0.6,6.6-1.3,9.8c-0.2,0.9-0.4,1.7-0.7,2.6c-0.8,2.7-1.7,5.3-2.9,7.9
	c-5.4,11.8-14.8,21.3-26.6,26.7c-11.8,5.4-25.1,6.5-37.5,3l-1.7-0.5c7.1-1.6,13.6-5.1,18.9-10.1s9.1-11.3,11.1-18.4L494,481
	c-1.4,4.9-3.8,9.5-7.2,13.4c-3.3,3.9-7.5,7-12.1,9.2c-4.7,2.2-9.7,3.3-14.9,3.3c-5.1,0-10.2-1.1-14.9-3.2c-2-0.9-3.9-2-5.7-3.3
	c-5.6-4-10-9.5-12.5-15.9c-0.2-0.5-0.4-0.9-0.5-1.4c-2.4-6.8-2.6-14.2-0.7-21.1v-0.2c0.2-0.8,0.5-1.6,0.8-2.4
	c2.2-5.9,5.9-11.2,10.9-15.1c1-0.8,2.1-1.6,3.2-2.3l0.7-0.4c4,5.7,9.7,9.9,16.3,12c6.6,2.1,13.7,1.9,20.2-0.4l1.3,0.9
	c1.6,1.1,3.3,2.1,5.1,3s3.6,1.8,5.5,2.6c2.4,1,5,1.9,7.5,2.6l14.9,4.1c4.6,1.3,9.5,1.6,14.3,0.7C531,466.1,535.5,464.2,539.3,461.3
	L539.3,461.3z M483.9,478.2c0.7-1.5,1.3-3,1.8-4.6l0.7-2.3l-25.3-7.1l-2.6-0.7c-2-0.6-4.1-0.7-6.1-0.5s-4,0.9-5.8,1.9
	s-3.4,2.4-4.7,4c-1.3,1.6-2.2,3.5-2.8,5.5c-0.6,2-0.7,4.1-0.5,6.1s0.9,4,1.9,5.8s2.4,3.4,4,4.7c1.6,1.3,3.5,2.2,5.5,2.8
	c6.6,1.8,13.6,1.3,19.8-1.5C475.9,489.3,480.9,484.3,483.9,478.2L483.9,478.2z"/>
<path class="st2" d="M437.3,434.6l-0.1,0.5h0.3C437.5,434.9,437.4,434.8,437.3,434.6z"/>
<path class="st1" d="M457.1,468.1c-2.4-0.7-4.9-0.5-7.2,0.5c-0.9,0.4-1.7,0.9-2.4,1.4c-1.6,1.2-2.8,2.9-3.5,4.7
	c-0.7,1.9-0.9,3.9-0.5,5.9s1.3,3.8,2.7,5.2c1.4,1.5,3.1,2.5,5,3.1c5.7,1.6,11.9,1,17.2-1.6c5.3-2.6,9.5-7.2,11.7-12.7l-20.5-5.8
	L457.1,468.1z"/>
<path class="st1" d="M466.9,396.7c5.3,0,10.4,1.6,14.8,4.5s7.8,7.1,9.8,12s2.5,10.2,1.5,15.4c-1,5.2-3.6,9.9-7.3,13.7
	c-3.7,3.7-8.5,6.3-13.7,7.3s-10.5,0.5-15.4-1.5s-9-5.4-12-9.8s-4.5-9.6-4.5-14.8c0-7.1,2.8-13.9,7.8-18.9
	C453,399.5,459.8,396.7,466.9,396.7L466.9,396.7z M455.5,429.9c1.9,0,3.8-0.6,5.4-1.6c1.6-1.1,2.8-2.6,3.6-4.3
	c0.7-1.8,0.9-3.7,0.6-5.6c-0.4-1.9-1.3-3.6-2.6-5c-1.4-1.4-3.1-2.3-5-2.7c-1.9-0.4-3.8-0.2-5.6,0.5c-1.8,0.7-3.3,2-4.4,3.6
	s-1.6,3.5-1.6,5.4c0,1.3,0.2,2.5,0.7,3.7s1.2,2.2,2.1,3.1s2,1.6,3.1,2.1C453,429.6,454.3,429.9,455.5,429.9L455.5,429.9z"/>
<path class="st1" d="M451.5,417.6c0.1,0.4,0.3,0.7,0.6,1c0.3,0.3,0.6,0.5,0.9,0.7c0.4,0.2,0.7,0.3,1.1,0.3s0.8-0.1,1.1-0.2
	c0.4-0.1,0.7-0.4,1-0.6c0.3-0.3,0.5-0.6,0.6-1s0.2-0.8,0.2-1.1c0-0.4-0.1-0.8-0.3-1.1c1,0.2,1.9,0.8,2.5,1.6c0.7,0.8,1,1.8,1.1,2.8
	s-0.2,2-0.7,2.9s-1.3,1.5-2.3,1.9c-0.9,0.4-2,0.4-3,0.2c-1-0.2-1.9-0.8-2.5-1.6c-0.7-0.8-1-1.8-1.1-2.8
	C450.7,419.5,450.9,418.5,451.5,417.6z"/>
<path class="st3" d="M90.9,364.7c15.8,1.7,29.7,9.7,39.2,21.4c4.9-0.1,9.8-1.1,14.6-2.9c5.1-2,9.7-4.8,13.6-8.3
	c-17.9,0.1-34.8-10.7-41.6-28.4c-6.8-17.7-1.5-37.1,11.9-49c-5.2,0-10.5,1-15.6,3c-22.8,8.8-34.3,34.4-25.5,57.2
	C88.4,360.2,89.5,362.5,90.9,364.7z"/>
</svg>
