<svg version="1.1" id="Layer_1" xmlns="http://www.w3.org/2000/svg" x="0" y="0" viewBox="0 0 574 557" xml:space="preserve"><style>.st1{fill:#fff}.st2{fill:#fed141}</style><path d="M242.9 513.4V353.7H574V0H0v557h574l.1-43.6H242.9z" fill="#eee"/><path d="M242.9 318.7c0-11 9-20 20.1-20h311v55H242.9v-35z"/><path class="st1" d="M271.6 312.5c8.2 0 14.9 6.7 14.9 14.9s-6.7 14.9-14.9 14.9-14.9-6.7-14.9-14.9 6.6-14.9 14.9-14.9z"/><path class="st2" d="M312.9 312.5c8.2 0 14.9 6.7 14.9 14.9s-6.7 14.9-14.9 14.9-14.9-6.7-14.9-14.9c-.1-8.2 6.6-14.9 14.9-14.9z"/><path class="st1" d="M354.1 312.5c8.2 0 14.9 6.7 14.9 14.9s-6.7 14.9-14.9 14.9-14.9-6.7-14.9-14.9 6.7-14.9 14.9-14.9z"/><path d="M61.5 292.7c1-1 1-2.6 0-3.5l-15.9-15.9c-1-1-2.6-1-3.5 0-1 1-1 2.6 0 3.5l14.1 14.1L42.1 305c-1 1-1 2.6 0 3.5 1 1 2.6 1 3.5 0l15.9-15.8zm-1.8-4.3H0v5h59.7v-5z"/><path class="st2" d="M461.8 447.6h92.1c11.1 0 20.1 9 20.1 20.1 0 11.1-9 20.1-20.1 20.1h-92.1c-11.1 0-20.1-9-20.1-20.1.1-11.1 9.1-20.1 20.1-20.1z"/><path d="M334.5 557h-5V439.2c0-9.6-7.9-17.5-17.5-17.5H0v-5h312c12.4 0 22.5 10.1 22.5 22.5V557z"/></svg>