<svg version="1.1" id="Layer_1" xmlns="http://www.w3.org/2000/svg" x="0" y="0" viewBox="0 0 573 557" xml:space="preserve" enable-background="new 0 0 573 557"><style>.st5,.st7{fill:none;stroke:#000;stroke-width:5}.st7{fill:#eee}</style><path d="M0 0h572c.6 0 1 .5 1 1v554.3c0 .6-.5 1-1 1H1c-.6 0-1-.5-1-1V0z" fill="#eee"/><path d="M130.3 462.9h60.4v50.4h-60.4zm82.3-136.7h60.7v187.1h-60.7zm79.3 93h60.7v94h-60.7z" fill="#fff"/><path d="M374.1 267.4h61.2v245.9h-61.2z"/><path fill="#fed141" d="M456.4 181.2h60.7v332h-60.7z"/><defs><filter id="Adobe_OpacityMaskFilter" filterUnits="userSpaceOnUse" x="-11.8" y="418.8" width="174.3" height="5"><feColorMatrix values="1 0 0 0 0 0 1 0 0 0 0 0 1 0 0 0 0 0 1 0"/></filter></defs><mask maskUnits="userSpaceOnUse" x="-11.8" y="418.8" width="174.3" height="5" id="mask0_1_"><path fill="#c4c4c4" filter="url(#Adobe_OpacityMaskFilter)" d="M0 382h189v174.3H0z"/></mask><g mask="url(#mask0_1_)"><path class="st5" d="M162.6 421.3H-11.8"/></g><path class="st5" d="M314.4 369.3l-71.5 88.2m160.6-116.6l-89.1 29.4m165.5-120.5l-80.3 90.1"/><path d="M400.6 336.9l-78.4 25.5m128.4-72.5l-46 51.9" stroke="#eee" fill="none" stroke-width="5"/><path class="st5" d="M242.9 454.5l-82.3-31.3"/><circle class="st7" cx="162.1" cy="422.6" r="10.7"/><circle cx="404" cy="339.4" r="10.7" stroke="#eee" stroke-width="5"/><circle cx="483.4" cy="249.3" r="10.7" fill="#fed141" stroke="#000" stroke-width="5"/><circle cx="242.4" cy="456.9" r="10.7" fill="#fff" stroke="#000" stroke-width="5"/><circle class="st7" cx="313.9" cy="368.8" r="10.7"/></svg>