<svg width="23" height="40" viewBox="0 0 23 40" fill="none" xmlns="http://www.w3.org/2000/svg">
<path d="M22.1928 0.751831C21.9505 0.513489 21.6628 0.324411 21.346 0.195406C21.0293 0.0664012 20.6897 0 20.3469 0C20.004 0 19.6645 0.0664012 19.3477 0.195406C19.031 0.324411 18.7432 0.513489 18.5009 0.751831L0.765229 18.1642C0.52264 18.4023 0.330191 18.685 0.198888 18.9962C0.0675844 19.3074 0 19.641 0 19.9778C0 20.3147 0.0675844 20.6483 0.198888 20.9595C0.330191 21.2707 0.52264 21.5534 0.765229 21.7915L18.5009 39.2038C18.741 39.4517 19.0292 39.6498 19.3484 39.7865C19.6677 39.9232 20.0115 39.9957 20.3598 39.9998C20.708 40.0039 21.0536 39.9394 21.376 39.8102C21.6985 39.681 21.9914 39.4897 22.2374 39.2476C22.4835 39.0054 22.6777 38.7173 22.8086 38.4003C22.9395 38.0832 23.0045 37.7436 22.9998 37.4015C22.995 37.0593 22.9206 36.7216 22.7809 36.4082C22.6412 36.0948 22.439 35.812 22.1863 35.5765L6.29662 19.9778L22.1863 4.37914C22.4293 4.14148 22.6223 3.8591 22.7542 3.54812C22.886 3.23715 22.9542 2.90369 22.9548 2.56681C22.9554 2.22993 22.8884 1.89624 22.7577 1.58481C22.6269 1.27338 22.435 0.990329 22.1928 0.751831Z" fill="black"/>
</svg>
