<svg version="1.1" id="Layer_1" xmlns="http://www.w3.org/2000/svg" xmlns:xlink="http://www.w3.org/1999/xlink" x="0px" y="0px"
	 viewBox="0 0 50 50" width="50" height="50" style="enable-background:new 0 0 50 50;" xml:space="preserve">
<path d="M10,0h30c5.5,0,10,4.5,10,10v30c0,5.5-4.5,10-10,10H10C4.5,50,0,45.5,0,40V10C0,4.5,4.5,0,10,0z"/>
<g>
	<path fill="white" d="M32.3,31.1c-1.6,1.4-3.7,2.2-5.9,2.2c-5,0-8.7-3.7-8.7-8.7s3.6-8.6,8.7-8.6c2.2,0,4.3,0.7,5.9,2.2l1.1,0.9
		l4.8-4.8l-1.2-1.1c-2.9-2.6-6.7-4-10.7-4c-9,0-15.5,6.5-15.5,15.4s6.7,15.6,15.5,15.6c4,0.1,7.8-1.4,10.8-4.1l1.2-1.1l-4.9-4.8
		L32.3,31.1z"/>
	<circle fill="white" cx="26.2" cy="24.6" r="5.2"/>
</g>
</svg>
