<svg width="119" height="55" viewBox="0 0 119 55" fill="none" xmlns="http://www.w3.org/2000/svg">
<path fill-rule="evenodd" clip-rule="evenodd" d="M58.4093 27.4959C58.4279 12.4156 46.5052 0.141181 31.7014 0H31.6607H18.8197C15.4853 0.00439676 12.2892 1.35787 9.9345 3.76267C7.57979 6.16747 6.25936 9.4266 6.26368 12.8231V42.1769C6.25936 45.5734 7.57979 48.8325 9.9345 51.2373C12.2892 53.6421 15.4853 54.9956 18.8197 55H31.6525C31.6525 55 31.6525 55 31.6932 55C46.4971 54.8588 58.4197 42.5844 58.4012 27.5041" fill="url(#paint0_linear)"/>
<path fill-rule="evenodd" clip-rule="evenodd" d="M27.9497 42.0372V42.0372C27.2143 42.0273 26.5972 41.4694 26.5003 40.7267L23.9924 22.3961L22.6163 28.7994C22.0728 31.2901 19.9098 33.0665 17.405 33.0793H0.940478C0.421067 33.0793 0 32.6504 0 32.1213C0 31.5922 0.421067 31.1633 0.940478 31.1633H17.4131C19.0376 31.1525 20.4393 29.9999 20.7923 28.3847L22.5348 20.2893C22.7043 19.5394 23.3736 19.0184 24.1285 19.0488C24.8834 19.0792 25.5102 19.6525 25.6209 20.4138L27.9986 37.9564L32.1432 13.5626C32.2602 12.8194 32.8944 12.2758 33.6333 12.2853V12.2853C34.3767 12.2865 35.0056 12.8456 35.1071 13.5958L37.3056 28.4095C37.5455 29.9914 38.8774 31.1618 40.4487 31.1716H67.6941C68.2135 31.1716 68.6346 31.6005 68.6346 32.1296C68.6346 32.6587 68.2135 33.0876 67.6941 33.0876H40.4569C37.9622 33.0689 35.8485 31.2109 35.4654 28.6998L33.6007 16.1422L29.4073 40.7764C29.2876 41.5056 28.6673 42.0392 27.9416 42.0372" fill="#2A3D44"/>
<path d="M87.4027 34.8652L84.4408 22.9631V35.8592C84.4408 36.5728 84.2812 37.108 83.9619 37.4648C83.651 37.8216 83.2351 38 82.7141 38C82.21 38 81.7982 37.8258 81.4789 37.4775C81.1596 37.1207 81 36.5813 81 35.8592V21.0771C81 20.2616 81.2101 19.7136 81.6302 19.4333C82.0503 19.1444 82.6175 19 83.3317 19H84.4913C85.1887 19 85.6928 19.0637 86.0037 19.1911C86.323 19.3186 86.5583 19.548 86.7095 19.8793C86.8608 20.2106 87.033 20.7501 87.2263 21.4977L89.9109 31.7304L92.5955 21.4977C92.7888 20.7501 92.961 20.2106 93.1123 19.8793C93.2635 19.548 93.4946 19.3186 93.8055 19.1911C94.1248 19.0637 94.6331 19 95.3305 19H96.4901C97.2043 19 97.7715 19.1444 98.1916 19.4333C98.6117 19.7136 98.8218 20.2616 98.8218 21.0771V35.8592C98.8218 36.5728 98.6621 37.108 98.3429 37.4648C98.032 37.8216 97.6118 38 97.0825 38C96.5867 38 96.1792 37.8216 95.8599 37.4648C95.5406 37.108 95.381 36.5728 95.381 35.8592V22.9631L92.4191 34.8652C92.2258 35.6383 92.0662 36.2075 91.9401 36.5728C91.8225 36.9296 91.5998 37.2567 91.2721 37.554C90.9444 37.8513 90.4907 38 89.9109 38C89.474 38 89.1043 37.9023 88.8018 37.7069C88.4993 37.52 88.264 37.2779 88.0959 36.9805C87.9279 36.6832 87.7935 36.3561 87.6926 35.9993C87.6002 35.634 87.5036 35.256 87.4027 34.8652Z" fill="#1A1A1A"/>
<path d="M105.501 19H110.379C111.648 19 112.736 19.1189 113.643 19.3568C114.551 19.5947 115.374 20.0407 116.114 20.6948C118.038 22.3599 119 24.8916 119 28.2897C119 29.4111 118.903 30.4348 118.71 31.3608C118.517 32.2868 118.219 33.1236 117.815 33.8712C117.412 34.6103 116.895 35.273 116.265 35.8592C115.769 36.3094 115.227 36.6705 114.639 36.9423C114.051 37.2142 113.417 37.4053 112.736 37.5158C112.064 37.6262 111.303 37.6814 110.455 37.6814H105.577C104.896 37.6814 104.384 37.5795 104.039 37.3756C103.695 37.1632 103.468 36.8701 103.359 36.4963C103.258 36.114 103.207 35.6213 103.207 35.0181V21.3192C103.207 20.5037 103.388 19.9133 103.749 19.548C104.111 19.1827 104.695 19 105.501 19ZM106.951 21.9946V34.674H109.787C110.408 34.674 110.896 34.6571 111.249 34.6231C111.602 34.5891 111.967 34.5041 112.345 34.3682C112.723 34.2323 113.051 34.0411 113.328 33.7948C114.58 32.7243 115.206 30.8808 115.206 28.2643C115.206 26.4207 114.929 25.0402 114.374 24.1227C113.828 23.2052 113.152 22.6233 112.345 22.3769C111.539 22.1221 110.564 21.9946 109.421 21.9946H106.951Z" fill="#1A1A1A"/>
<defs>
<linearGradient id="paint0_linear" x1="58.4093" y1="55" x2="58.4093" y2="0" gradientUnits="userSpaceOnUse">
<stop stop-color="#B3EFE8"/>
<stop offset="1" stop-color="#E8EDCF"/>
</linearGradient>
</defs>
</svg>
