<svg width="350" height="349" viewBox="0 0 350 349" fill="none" xmlns="http://www.w3.org/2000/svg">
<circle cx="175.5" cy="174.5" r="174.5" fill="#EAEAEA"/>
<mask id="mask0" mask-type="alpha" maskUnits="userSpaceOnUse" x="0" y="0" width="349" height="349">
<circle cx="174.5" cy="174.5" r="174.5" fill="#FED141"/>
</mask>
<g mask="url(#mask0)">
<rect x="73" y="108" width="203" height="98" fill="white"/>
<rect x="124" y="108" width="152" height="98" fill="#FED141"/>
<rect x="159" y="205" width="33" height="36" fill="#FED141"/>
<rect x="112" y="242" width="125" height="122" fill="white"/>
<rect x="148" y="242" width="89" height="122" fill="#FED141"/>
</g>
<circle cx="231" cy="157" r="19" fill="black"/>
<ellipse cx="231" cy="156.5" rx="7" ry="7.5" fill="white"/>
<circle cx="125" cy="157" r="19" fill="black"/>
<ellipse cx="125" cy="156.5" rx="7" ry="7.5" fill="white"/>
<rect x="140" y="89" width="75" height="19" fill="black"/>
<rect x="76.5" y="107.5" width="198" height="96" stroke="black" stroke-width="5"/>
<path d="M113 242.5H237.5V337" stroke="black" stroke-width="5"/>
<path d="M192.5 205.5V241.5" stroke="black" stroke-width="5"/>
<rect x="72" y="103" width="7" height="110" fill="#EAEAEA"/>
</svg>
