<?xml version="1.0" standalone="no"?>
<!DOCTYPE svg PUBLIC "-//W3C//DTD SVG 20010904//EN"
 "http://www.w3.org/TR/2001/REC-SVG-20010904/DTD/svg10.dtd">
<svg version="1.0" xmlns="http://www.w3.org/2000/svg"
 width="494.000000pt" height="494.000000pt" viewBox="0 0 494.000000 494.000000"
 preserveAspectRatio="xMidYMid meet">
<metadata>
Created by potrace 1.11, written by Peter Selinger 2001-2013
</metadata>
<g transform="translate(0.000000,494.000000) scale(0.100000,-0.100000)"
fill="#000000" stroke="none">
<path d="M1250 4443 c-213 -36 -381 -118 -519 -254 -150 -149 -239 -330 -268
-549 -4 -25 -7 -357 -7 -737 l-1 -693 -201 0 c-178 0 -204 -2 -223 -18 -31
-24 -31 -79 -1 -104 20 -16 43 -18 224 -18 l202 0 -1 -352 c0 -314 4 -413 19
-483 16 -75 26 -108 50 -167 28 -71 75 -153 122 -216 52 -70 170 -179 236
-217 103 -60 222 -109 294 -119 22 -4 62 -10 89 -14 60 -9 1082 -8 1176 2 86
8 230 33 299 52 30 8 66 17 80 20 13 3 30 10 37 16 7 6 13 8 13 5 0 -9 151 52
251 103 382 191 689 502 879 890 15 30 34 71 43 90 27 60 84 231 103 313 l18
77 367 0 368 0 20 26 c27 35 26 59 -4 89 l-24 25 -351 0 -350 0 7 103 c12 173
6 343 -17 469 -5 29 -12 69 -15 88 -45 274 -212 628 -410 870 -94 115 -239
252 -360 340 -259 188 -523 295 -880 356 -43 8 -1224 14 -1265 7z"/>
</g>
</svg>
