<?xml version="1.0" standalone="no"?>
<!DOCTYPE svg PUBLIC "-//W3C//DTD SVG 20010904//EN"
 "http://www.w3.org/TR/2001/REC-SVG-20010904/DTD/svg10.dtd">
<svg version="1.0" xmlns="http://www.w3.org/2000/svg"
 width="700.000000pt" height="700.000000pt" viewBox="0 0 700.000000 700.000000"
 preserveAspectRatio="xMidYMid meet">
<metadata>
Created by potrace 1.11, written by Peter Selinger 2001-2013
</metadata>
<g transform="translate(0.000000,700.000000) scale(0.100000,-0.100000)"
fill="#000000" stroke="none">
<path d="M3850 6723 c-264 -31 -542 -166 -733 -358 -248 -247 -376 -556 -377
-905 -1 -614 444 -1139 1054 -1245 113 -19 308 -19 422 0 677 115 1142 757
1039 1436 -29 196 -120 415 -237 569 -72 96 -214 233 -306 294 -93 62 -259
140 -352 166 -152 42 -363 60 -510 43z m891 -695 c121 -60 211 -169 243 -293
51 -195 -27 -398 -194 -505 -195 -125 -461 -83 -603 94 -201 254 -96 618 208
725 49 18 79 21 166 19 99 -3 110 -6 180 -40z"/>
<path d="M4435 5818 c-138 -76 -161 -274 -43 -373 47 -40 89 -55 150 -55 68 0
123 26 170 78 58 64 72 152 38 237 l-11 30 -21 -28 c-42 -57 -116 -73 -175
-37 -45 27 -65 62 -65 115 0 47 -7 53 -43 33z"/>
<path d="M5838 5982 c-207 -59 -379 -110 -383 -114 -4 -3 3 -50 15 -105 48
-216 36 -499 -30 -722 -41 -136 -41 -133 23 -125 318 41 611 268 734 569 51
128 67 210 66 360 -1 127 -18 236 -38 241 -6 1 -180 -46 -387 -104z"/>
<path d="M5186 4545 c-61 -85 -242 -255 -345 -323 -380 -253 -831 -323 -1262
-195 l-85 25 -85 -55 c-206 -134 -452 -252 -694 -332 -150 -50 -772 -227 -920
-262 -395 -92 -821 -11 -1167 222 -29 19 -54 33 -56 30 -7 -7 20 -229 43 -360
76 -411 262 -817 525 -1144 100 -124 319 -337 440 -427 381 -286 806 -457
1275 -515 144 -17 455 -15 605 5 127 17 287 50 395 81 l59 18 -97 28 c-536
159 -961 515 -1197 1004 -52 106 -120 285 -120 312 0 6 28 18 63 27 34 8 83
22 109 30 l46 15 27 -82 c40 -124 125 -294 206 -414 91 -134 284 -330 419
-426 181 -128 412 -227 651 -279 89 -19 134 -22 319 -22 187 0 229 3 319 22
221 49 448 141 606 247 382 258 648 661 731 1110 26 139 26 470 1 600 -81 411
-302 772 -622 1016 -56 43 -141 100 -147 99 -2 -1 -21 -25 -42 -55z m-428
-971 c154 -32 287 -107 394 -223 79 -86 122 -157 162 -268 30 -84 31 -95 31
-238 0 -138 -2 -156 -28 -230 -42 -119 -99 -209 -192 -301 -124 -124 -278
-192 -500 -223 -325 -46 -674 37 -955 225 -156 104 -337 301 -428 466 -71 128
-164 390 -145 408 4 5 132 43 283 85 326 92 465 130 783 220 131 36 266 72
300 80 85 18 203 18 295 -1z"/>
<path d="M4435 3330 c-60 -16 -279 -76 -485 -135 -206 -58 -418 -118 -470
-132 -52 -14 -97 -28 -99 -29 -2 -2 13 -37 32 -79 135 -284 403 -510 710 -599
181 -53 401 -59 576 -16 256 62 420 260 421 505 0 281 -230 513 -510 514 -40
0 -107 -11 -175 -29z"/>
<path d="M2775 614 c-1026 -27 -1448 -72 -1058 -113 752 -81 3625 -73 4121 11
187 31 -38 61 -673 89 -222 10 -2117 20 -2390 13z"/>
</g>
</svg>
