<?xml version="1.0" encoding="utf-8"?>
<!-- Generator: Adobe Illustrator 24.0.1, SVG Export Plug-In . SVG Version: 6.00 Build 0)  -->
<svg version="1.1" id="Layer_1" xmlns="http://www.w3.org/2000/svg" xmlns:xlink="http://www.w3.org/1999/xlink" x="0px" y="0px"
	 viewBox="0 0 574 557" style="enable-background:new 0 0 574 557;" xml:space="preserve">
<style type="text/css">
	.st0{fill:#EEEEEE;}
	.st1{fill:#FFFFFF;}
	.st2{fill:#FED141;}
</style>
<path class="st0" d="M242.9,513.4V353.7H574c0,0,0-353.7,0-353.7C574,0,0,0,0,0l0,557l574,0c0,0,0.1-43.6,0.1-43.6L242.9,513.4
	L242.9,513.4z"/>
<g>
	<path d="M242.9,318.7c0-11,9-20,20.1-20h311v55H242.9V318.7z"/>
</g>
<g>
	<path class="st1" d="M271.6,312.5L271.6,312.5c8.2,0,14.9,6.7,14.9,14.9l0,0c0,8.2-6.7,14.9-14.9,14.9l0,0
		c-8.2,0-14.9-6.7-14.9-14.9l0,0C256.7,319.2,263.3,312.5,271.6,312.5z"/>
</g>
<g>
	<path class="st2" d="M312.9,312.5L312.9,312.5c8.2,0,14.9,6.7,14.9,14.9l0,0c0,8.2-6.7,14.9-14.9,14.9l0,0
		c-8.2,0-14.9-6.7-14.9-14.9l0,0C297.9,319.2,304.6,312.5,312.9,312.5z"/>
</g>
<g>
	<path class="st1" d="M354.1,312.5L354.1,312.5c8.2,0,14.9,6.7,14.9,14.9l0,0c0,8.2-6.7,14.9-14.9,14.9l0,0
		c-8.2,0-14.9-6.7-14.9-14.9l0,0C339.2,319.2,345.9,312.5,354.1,312.5z"/>
</g>
<g>
	<path d="M61.5,292.7c1-1,1-2.6,0-3.5l-15.9-15.9c-1-1-2.6-1-3.5,0c-1,1-1,2.6,0,3.5l14.1,14.1L42.1,305c-1,1-1,2.6,0,3.5
		c1,1,2.6,1,3.5,0L61.5,292.7z M59.7,288.4H0v5h59.7V288.4z"/>
</g>
<g>
	<path class="st2" d="M461.8,447.6h92.1c11.1,0,20.1,9,20.1,20.1l0,0c0,11.1-9,20.1-20.1,20.1h-92.1c-11.1,0-20.1-9-20.1-20.1l0,0
		C441.8,456.6,450.8,447.6,461.8,447.6z"/>
</g>
<g>
	<path d="M334.5,557h-5V439.2c0-9.6-7.9-17.5-17.5-17.5H0v-5h312c12.4,0,22.5,10.1,22.5,22.5V557z"/>
</g>
</svg>
