<?xml version="1.0" encoding="utf-8"?>
<!-- Generator: Adobe Illustrator 24.0.1, SVG Export Plug-In . SVG Version: 6.00 Build 0)  -->
<svg version="1.1" id="Layer_1" xmlns="http://www.w3.org/2000/svg" xmlns:xlink="http://www.w3.org/1999/xlink" x="0px" y="0px"
	 viewBox="0 0 573 557" style="enable-background:new 0 0 573 557;" xml:space="preserve">
<style type="text/css">
	.st0{fill:#EEEEEE;}
	.st1{fill:#FFFFFF;}
	.st2{fill:#FED141;}
	.st3{fill:#C4C4C4;filter:url(#Adobe_OpacityMaskFilter);}
	.st4{mask:url(#mask0_1_);}
	.st5{fill:none;stroke:#000000;stroke-width:5;}
	.st6{fill:none;stroke:#EEEEEE;stroke-width:5;}
	.st7{fill:#EEEEEE;stroke:#000000;stroke-width:5;}
	.st8{stroke:#EEEEEE;stroke-width:5;}
	.st9{fill:#FED141;stroke:#000000;stroke-width:5;}
	.st10{fill:#FFFFFF;stroke:#000000;stroke-width:5;}
</style>
<path class="st0" d="M0,0h572c0.6,0,1,0.5,1,1v554.3c0,0.6-0.5,1-1,1H1c-0.6,0-1-0.5-1-1V0z"/>
<rect x="130.3" y="462.9" class="st1" width="60.4" height="50.4"/>
<rect x="212.6" y="326.2" class="st1" width="60.7" height="187.1"/>
<rect x="291.9" y="419.2" class="st1" width="60.7" height="94"/>
<rect x="374.1" y="267.4" width="61.2" height="245.9"/>
<rect x="456.4" y="181.2" class="st2" width="60.7" height="332"/>
<defs>
	<filter id="Adobe_OpacityMaskFilter" filterUnits="userSpaceOnUse" x="-11.8" y="418.8" width="174.3" height="5">
		<feColorMatrix  type="matrix" values="1 0 0 0 0  0 1 0 0 0  0 0 1 0 0  0 0 0 1 0"/>
	</filter>
</defs>
<mask maskUnits="userSpaceOnUse" x="-11.8" y="418.8" width="174.3" height="5" id="mask0_1_">
	<rect y="382" class="st3" width="189" height="174.3"/>
</mask>
<g class="st4">
	<path class="st5" d="M162.6,421.3H-11.8"/>
</g>
<path class="st5" d="M314.4,369.3l-71.5,88.2"/>
<path class="st5" d="M403.5,340.9l-89.1,29.4"/>
<path class="st5" d="M479.9,249.8l-80.3,90.1"/>
<path class="st6" d="M400.6,336.9l-78.4,25.5"/>
<path class="st6" d="M450.6,289.9l-46,51.9"/>
<path class="st5" d="M242.9,454.5l-82.3-31.3"/>
<circle class="st7" cx="162.1" cy="422.6" r="10.7"/>
<circle class="st8" cx="404" cy="339.4" r="10.7"/>
<circle class="st9" cx="483.4" cy="249.3" r="10.7"/>
<circle class="st10" cx="242.4" cy="456.9" r="10.7"/>
<circle class="st7" cx="313.9" cy="368.8" r="10.7"/>
</svg>
